<svg width="39" height="40" viewBox="0 0 39 40" fill="none" xmlns="http://www.w3.org/2000/svg">
<path d="M13.047 10.0755C12.4235 10.2718 11.8404 10.7048 11.5229 11.1955C11.2458 11.6342 11.113 12.0903 11.0726 12.7484L11.038 13.3373L10.8301 13.4065C10.7147 13.4412 10.3163 13.597 9.9411 13.7587L9.26566 14.0473L8.86732 13.6779C7.92632 12.8061 6.73708 12.6041 5.65753 13.1352C5.31115 13.3084 5.10333 13.4874 4.26047 14.336C3.42916 15.1731 3.23865 15.3982 3.09432 15.71C2.5863 16.7895 2.79413 17.9614 3.65431 18.8909L4.02378 19.295L3.82172 19.7395C3.71204 19.982 3.55039 20.3803 3.4638 20.6228L3.30793 21.0615L2.72485 21.0962C1.48943 21.1654 0.686986 21.685 0.190509 22.7299L0 23.1283V26.4189L0.190509 26.8172C0.686986 27.8621 1.48943 28.3817 2.72485 28.451L3.30793 28.4856L3.4638 28.9243C3.55039 29.1668 3.71204 29.5651 3.82172 29.8076L4.02378 30.2521L3.65431 30.6562C3.00196 31.3605 2.72485 32.1745 2.85186 33.0174C2.97309 33.8198 3.14051 34.0854 4.26047 35.2111C5.38043 36.3369 5.70372 36.5505 6.47153 36.6659C7.37211 36.8045 8.18611 36.5216 8.93082 35.8115L9.25988 35.4998L9.9411 35.7884C10.3163 35.9501 10.7147 36.1059 10.8301 36.1406L11.038 36.2099L11.0726 36.7987C11.1419 38.0341 11.6557 38.8366 12.7064 39.333L13.1047 39.5236H16.3953L16.7936 39.333C17.8386 38.8423 18.3581 38.0341 18.4274 36.8045L18.462 36.2214L18.9008 36.0598C19.1432 35.9732 19.5416 35.8115 19.7898 35.6961L20.2343 35.494L20.5692 35.8115C21.3139 36.5216 22.1337 36.8045 23.04 36.6659C23.7963 36.5505 24.1253 36.3311 25.2395 35.2111C26.0708 34.374 26.2613 34.1489 26.4057 33.8372C26.9079 32.7576 26.7059 31.5799 25.8457 30.6562L25.4762 30.2579L25.7649 29.5825C25.9265 29.2072 26.0882 28.8089 26.1286 28.6934L26.1978 28.4856L26.7809 28.451C28.0106 28.3817 28.8188 27.8621 29.3095 26.8172L29.5 26.4189V23.1283L29.3095 22.7299C28.8188 21.685 28.0106 21.1654 26.7809 21.0962L26.1978 21.0615L26.1286 20.8537C26.0882 20.7382 25.9265 20.3399 25.7649 19.9647L25.4762 19.2892L25.8457 18.8909C26.7174 17.9499 26.9195 16.7606 26.3884 15.6811C26.2152 15.3347 26.0362 15.1269 25.1876 14.284C24.3505 13.4527 24.1253 13.2622 23.8136 13.1179C22.7341 12.6099 21.5621 12.8177 20.6327 13.6779L20.2286 14.0473L19.784 13.8511C19.5416 13.7356 19.1375 13.5739 18.895 13.4816L18.4447 13.3142V12.9678C18.4447 11.8651 18.0233 10.9934 17.2324 10.4508C16.632 10.0409 16.3895 9.99469 14.7327 10.0005C13.7282 10.0005 13.2086 10.0236 13.047 10.0755ZM16.0951 11.8651C16.2221 11.9286 16.3895 12.0787 16.4704 12.2057C16.6205 12.4309 16.6262 12.4829 16.6551 13.395C16.6955 14.6997 16.6609 14.6535 17.8963 15.0461C18.2773 15.1673 18.9412 15.4502 19.3684 15.6638C20.1073 16.039 20.1651 16.0621 20.4768 16.039L20.8059 16.0217L21.4698 15.3751C22.2145 14.6535 22.405 14.5554 22.8495 14.6708C23.0516 14.7285 23.2363 14.8844 23.9406 15.583C24.6391 16.2873 24.795 16.472 24.8527 16.674C24.9682 17.1186 24.8701 17.3091 24.1484 18.0538L23.5019 18.7177L23.4845 19.0467C23.4614 19.3585 23.4845 19.4162 23.8598 20.1552C24.0734 20.5824 24.3563 21.2463 24.4775 21.6273C24.8701 22.8627 24.8239 22.8281 26.1286 22.8685C27.0407 22.8973 27.0927 22.9031 27.3178 23.0532C27.7277 23.3245 27.7681 23.4862 27.7681 24.7736C27.7681 26.0609 27.7277 26.2226 27.3178 26.4939C27.0927 26.644 27.0407 26.6498 26.1286 26.6786C24.8239 26.7191 24.8701 26.6844 24.4775 27.9198C24.3563 28.3009 24.0734 28.9648 23.8598 29.392C23.4845 30.1309 23.4614 30.1886 23.4845 30.5004L23.5019 30.8294L24.1484 31.4933C24.8701 32.238 24.9682 32.4286 24.8527 32.8673C24.795 33.0751 24.6391 33.2599 23.9406 33.9642C23.2363 34.6627 23.0516 34.8186 22.8495 34.8763C22.405 34.9918 22.2145 34.8936 21.4698 34.172L20.8059 33.5254L20.4768 33.5081C20.1651 33.485 20.1073 33.5081 19.3684 33.8833C18.9412 34.0969 18.2773 34.3798 17.8963 34.5011C16.6609 34.8936 16.6955 34.8474 16.6551 36.1521C16.6262 37.0643 16.6205 37.1162 16.4704 37.3414C16.199 37.7512 16.0374 37.7917 14.75 37.7917C13.4626 37.7917 13.301 37.7512 13.0296 37.3414C12.8795 37.1162 12.8738 37.0643 12.8449 36.1521C12.8045 34.8474 12.8391 34.8936 11.6037 34.5011C11.2227 34.3798 10.5588 34.0969 10.1316 33.8833C9.39266 33.5081 9.33493 33.485 9.02319 33.5081L8.69413 33.5254L8.03023 34.172C7.28552 34.8936 7.09501 34.9918 6.65049 34.8763C6.44843 34.8186 6.2637 34.6627 5.55939 33.9642C4.86086 33.2599 4.70499 33.0751 4.64726 32.8673C4.5318 32.4286 4.62994 32.238 5.35157 31.4933L5.99814 30.8294L6.01546 30.5004C6.03855 30.1886 6.01546 30.1309 5.64021 29.392C5.42661 28.9648 5.14374 28.3009 5.0225 27.9198C4.62994 26.6844 4.67613 26.7191 3.37143 26.6786C2.4593 26.6498 2.40734 26.644 2.18219 26.4939C1.77231 26.2226 1.7319 26.0609 1.7319 24.7736C1.7319 23.4862 1.77231 23.3245 2.18219 23.0532C2.40734 22.9031 2.4593 22.8973 3.37143 22.8685C4.67613 22.8281 4.62994 22.8627 5.0225 21.6273C5.14374 21.2463 5.42661 20.5824 5.64021 20.1552C6.01546 19.4162 6.03855 19.3585 6.01546 19.0467L5.99814 18.7177L5.35157 18.0538C4.62994 17.3091 4.5318 17.1186 4.64726 16.674C4.70499 16.472 4.86086 16.2873 5.55939 15.583C6.50616 14.6362 6.66781 14.5438 7.12387 14.6708C7.31438 14.7228 7.50489 14.8729 8.03023 15.3751C8.68836 16.0102 8.69413 16.0159 9.00587 16.0448C9.30607 16.0679 9.3638 16.0448 10.1432 15.658C10.5992 15.4329 11.292 15.1442 11.6845 15.0172C12.0829 14.8902 12.4639 14.7459 12.5274 14.7055C12.7814 14.538 12.8449 14.2783 12.8449 13.4469C12.8449 12.5406 12.8969 12.3097 13.1624 12.0441C13.4338 11.7728 13.682 11.7324 14.8655 11.7439C15.7199 11.7555 15.9104 11.7728 16.0951 11.8651Z" fill="#69B99D"/>
<path d="M13.8954 18.3713C13.0121 18.4868 11.8402 18.9255 11.1359 19.4105C10.6336 19.7511 10.091 20.2591 9.69842 20.744C9.24235 21.3156 8.68815 22.3951 8.51496 23.0705C8.23208 24.1674 8.23208 25.3913 8.51496 26.4766C8.65351 26.9904 9.09226 27.966 9.38668 28.3875C10.5297 30.0559 12.354 31.0892 14.3745 31.2162C16.4413 31.349 18.4791 30.4427 19.8012 28.8031C20.2572 28.2316 20.8114 27.152 20.9846 26.4766C21.2675 25.3797 21.2675 24.1674 20.9846 23.0705C20.8114 22.3951 20.2572 21.3156 19.8012 20.744C19.1488 19.9358 18.4618 19.3989 17.5035 18.9428C16.3835 18.406 15.1308 18.2097 13.8954 18.3713ZM15.8755 20.2475C17.5555 20.6978 18.7851 21.9159 19.2643 23.6074C19.449 24.2425 19.4432 25.3105 19.2643 25.9513C18.7967 27.585 17.5612 28.8204 15.9217 29.2881C15.2809 29.4728 14.2187 29.4728 13.5721 29.2881C11.921 28.8147 10.7087 27.6023 10.2353 25.9513C10.0679 25.3566 10.0563 24.2482 10.2122 23.6767C10.7376 21.7658 12.2039 20.4496 14.1436 20.1321C14.4669 20.0859 15.5234 20.1494 15.8755 20.2475Z" fill="#69B99D"/>
<path d="M30.4129 0.0371341C30.1065 0.133612 29.8199 0.34643 29.6638 0.587623C29.5276 0.803279 29.4623 1.02745 29.4425 1.35093L29.4254 1.64036L29.3233 1.67441C29.2665 1.69144 29.0707 1.76805 28.8863 1.84751L28.5543 1.98938L28.3585 1.80778C27.896 1.37931 27.3114 1.27999 26.7808 1.54105C26.6106 1.62618 26.5084 1.71414 26.0941 2.13126C25.6855 2.54271 25.5919 2.65338 25.5209 2.80661C25.2712 3.33723 25.3734 3.91326 25.7962 4.37011L25.9778 4.56874L25.8785 4.78723C25.8246 4.90641 25.7451 5.1022 25.7025 5.22138L25.6259 5.43704L25.3393 5.45406C24.7321 5.48811 24.3377 5.74349 24.0936 6.25709L24 6.45289V8.0703L24.0936 8.2661C24.3377 8.7797 24.7321 9.03508 25.3393 9.06913L25.6259 9.08616L25.7025 9.30181C25.7451 9.42099 25.8246 9.61678 25.8785 9.73596L25.9778 9.95445L25.7962 10.1531C25.4755 10.4993 25.3393 10.8994 25.4018 11.3137C25.4614 11.7081 25.5436 11.8386 26.0941 12.3919C26.6446 12.9453 26.8035 13.0502 27.1809 13.107C27.6236 13.1751 28.0237 13.0361 28.3897 12.687L28.5515 12.5338L28.8863 12.6757C29.0707 12.7551 29.2665 12.8318 29.3233 12.8488L29.4254 12.8828L29.4425 13.1723C29.4765 13.7795 29.7291 14.1739 30.2455 14.418L30.4413 14.5116H32.0587L32.2545 14.418C32.7681 14.1768 33.0235 13.7795 33.0575 13.1751L33.0746 12.8885L33.2902 12.8091C33.4094 12.7665 33.6052 12.687 33.7272 12.6303L33.9457 12.531L34.1103 12.687C34.4763 13.0361 34.8793 13.1751 35.3248 13.107C35.6965 13.0502 35.8582 12.9424 36.4059 12.3919C36.8145 11.9805 36.9081 11.8698 36.9791 11.7166C37.2259 11.186 37.1266 10.6071 36.7038 10.1531L36.5222 9.95729L36.6641 9.62529C36.7435 9.44085 36.823 9.24506 36.8429 9.18831L36.8769 9.08616L37.1635 9.06913C37.7679 9.03508 38.1652 8.7797 38.4064 8.2661L38.5 8.0703V6.45289L38.4064 6.25709C38.1652 5.74349 37.7679 5.48811 37.1635 5.45406L36.8769 5.43704L36.8429 5.33488C36.823 5.27813 36.7435 5.08234 36.6641 4.8979L36.5222 4.5659L36.7038 4.37011C37.1323 3.90758 37.2316 3.32304 36.9705 2.79242C36.8854 2.62216 36.7975 2.52001 36.3803 2.10573C35.9689 1.69711 35.8582 1.60347 35.705 1.53254C35.1744 1.28283 34.5983 1.38498 34.1415 1.80778L33.9429 1.98938L33.7244 1.89291C33.6052 1.83616 33.4066 1.7567 33.2874 1.7113L33.066 1.62901V1.45876C33.066 0.916782 32.8589 0.488308 32.4702 0.221576C32.175 0.0201087 32.0559 -0.00259189 31.2415 0.000245687C30.7477 0.000245687 30.4924 0.011596 30.4129 0.0371341ZM31.9112 0.916782C31.9736 0.947995 32.0559 1.02177 32.0956 1.0842C32.1694 1.19486 32.1722 1.2204 32.1864 1.66874C32.2063 2.31003 32.1892 2.28733 32.7965 2.48028C32.9838 2.53987 33.3101 2.67892 33.5201 2.78391C33.8833 2.96835 33.9116 2.9797 34.0649 2.96835L34.2266 2.95983L34.5529 2.64203C34.919 2.28733 35.0126 2.23909 35.2311 2.29584C35.3304 2.32422 35.4212 2.40083 35.7674 2.74418C36.1108 3.09036 36.1874 3.18117 36.2158 3.28048C36.2725 3.49897 36.2243 3.59261 35.8696 3.95866L35.5518 4.28498L35.5432 4.44672C35.5319 4.59995 35.5432 4.62833 35.7277 4.99154C35.8327 5.20152 35.9717 5.52784 36.0313 5.71512C36.2243 6.32236 36.2016 6.30533 36.8429 6.3252C37.2912 6.33938 37.3167 6.34222 37.4274 6.416C37.6289 6.54936 37.6487 6.62882 37.6487 7.2616C37.6487 7.89438 37.6289 7.97383 37.4274 8.10719C37.3167 8.18097 37.2912 8.18381 36.8429 8.198C36.2016 8.21786 36.2243 8.20083 36.0313 8.80807C35.9717 8.99535 35.8327 9.32167 35.7277 9.53165C35.5432 9.89486 35.5319 9.92324 35.5432 10.0765L35.5518 10.2382L35.8696 10.5645C36.2243 10.9306 36.2725 11.0242 36.2158 11.2399C36.1874 11.342 36.1108 11.4328 35.7674 11.779C35.4212 12.1224 35.3304 12.199 35.2311 12.2273C35.0126 12.2841 34.919 12.2359 34.5529 11.8812L34.2266 11.5634L34.0649 11.5548C33.9116 11.5435 33.8833 11.5548 33.5201 11.7393C33.3101 11.8443 32.9838 11.9833 32.7965 12.0429C32.1892 12.2359 32.2063 12.2132 32.1864 12.8545C32.1722 13.3028 32.1694 13.3283 32.0956 13.439C31.9622 13.6405 31.8828 13.6603 31.25 13.6603C30.6172 13.6603 30.5378 13.6405 30.4044 13.439C30.3306 13.3283 30.3278 13.3028 30.3136 12.8545C30.2937 12.2132 30.3108 12.2359 29.7035 12.0429C29.5162 11.9833 29.1899 11.8443 28.9799 11.7393C28.6167 11.5548 28.5884 11.5435 28.4351 11.5548L28.2734 11.5634L27.9471 11.8812C27.581 12.2359 27.4874 12.2841 27.2689 12.2273C27.1696 12.199 27.0788 12.1224 26.7326 11.779C26.3892 11.4328 26.3126 11.342 26.2842 11.2399C26.2275 11.0242 26.2757 10.9306 26.6304 10.5645L26.9482 10.2382L26.9568 10.0765C26.9681 9.92324 26.9568 9.89486 26.7723 9.53165C26.6673 9.32167 26.5283 8.99535 26.4687 8.80807C26.2757 8.20083 26.2984 8.21786 25.6571 8.198C25.2088 8.18381 25.1833 8.18097 25.0726 8.10719C24.8711 7.97383 24.8513 7.89438 24.8513 7.2616C24.8513 6.62882 24.8711 6.54936 25.0726 6.416C25.1833 6.34222 25.2088 6.33938 25.6571 6.3252C26.2984 6.30533 26.2757 6.32236 26.4687 5.71512C26.5283 5.52784 26.6673 5.20152 26.7723 4.99154C26.9568 4.62833 26.9681 4.59995 26.9568 4.44672L26.9482 4.28498L26.6304 3.95866C26.2757 3.59261 26.2275 3.49897 26.2842 3.28048C26.3126 3.18117 26.3892 3.09036 26.7326 2.74418C27.1979 2.27882 27.2774 2.23342 27.5016 2.29584C27.5952 2.32138 27.6888 2.39516 27.9471 2.64203C28.2705 2.95416 28.2734 2.957 28.4266 2.97118C28.5742 2.98254 28.6025 2.97119 28.9856 2.78107C29.2098 2.6704 29.5503 2.52852 29.7432 2.4661C29.939 2.40367 30.1263 2.33273 30.1575 2.31287C30.2824 2.23058 30.3136 2.10289 30.3136 1.69428C30.3136 1.24878 30.3391 1.13528 30.4697 1.00475C30.603 0.871381 30.725 0.851518 31.3068 0.857193C31.7267 0.862868 31.8204 0.871381 31.9112 0.916782Z" fill="#69B99D"/>
<path d="M30.8299 4.11472C30.3958 4.17147 29.8197 4.38712 29.4735 4.62548C29.2267 4.7929 28.9599 5.0426 28.767 5.28096C28.5428 5.56188 28.2704 6.0925 28.1853 6.4245C28.0462 6.96364 28.0462 7.56521 28.1853 8.09867C28.2534 8.35121 28.469 8.83076 28.6138 9.03791C29.1756 9.85796 30.0723 10.3659 31.0654 10.4283C32.0813 10.4936 33.0829 10.0481 33.7327 9.24221C33.9569 8.96129 34.2293 8.43067 34.3144 8.09867C34.4535 7.55953 34.4535 6.96364 34.3144 6.4245C34.2293 6.0925 33.9569 5.56188 33.7327 5.28096C33.4121 4.8837 33.0744 4.6198 32.6034 4.39564C32.0529 4.13174 31.4371 4.03526 30.8299 4.11472ZM31.8032 5.03693C32.6289 5.25826 33.2333 5.85699 33.4688 6.6884C33.5597 7.00053 33.5568 7.52548 33.4688 7.84045C33.239 8.64348 32.6318 9.25072 31.8259 9.48057C31.5109 9.57137 30.9888 9.57137 30.671 9.48057C29.8595 9.24789 29.2636 8.652 29.0309 7.84045C28.9486 7.54818 28.9429 7.00337 29.0195 6.72245C29.2778 5.78321 29.9985 5.13624 30.9519 4.98018C31.1108 4.95748 31.6301 4.98869 31.8032 5.03693Z" fill="#69B99D"/>
</svg>
