<svg width="42" height="42" viewBox="0 0 42 42" fill="none" xmlns="http://www.w3.org/2000/svg">
<path d="M4.01981 1.10742C3.14207 1.70625 2.37098 2.28047 2.32176 2.38711C2.24793 2.53477 2.21512 3.33047 2.21512 5.43047V8.28516H1.27996C-0.122773 8.28516 -0.00792884 7.95703 0.0166805 12.0258C0.0412899 15.0691 0.049493 15.348 0.188946 15.4793C0.30379 15.6023 0.508868 15.6352 1.27176 15.6516L2.21512 15.6844V28.957H1.27996C0.279181 28.957 0.131524 29.0063 0.0412899 29.3918C0.0166805 29.4902 0.0084774 31.0242 0.0166805 32.7961C0.0412899 35.8805 0.049493 36.0281 0.197149 36.143C0.311993 36.225 0.615509 36.2578 1.28816 36.2578H2.20691L2.23152 39.0141C2.25613 41.6309 2.26434 41.7703 2.41199 41.8852C2.54324 41.9836 3.16668 42 5.94754 42C9.11395 42 9.33543 41.9918 9.45848 41.8523C9.58152 41.7129 9.59793 41.393 9.59793 38.9812V36.2578H12.2968L12.3214 39.0141C12.346 41.6309 12.3542 41.7703 12.5018 41.8852C12.6331 41.9836 13.2565 42 16.0374 42C19.2038 42 19.4253 41.9918 19.5483 41.8523C19.6714 41.7129 19.6878 41.393 19.6878 38.9812V36.2578H22.3948V38.891C22.3948 41.4914 22.4194 41.7703 22.6737 41.9344C22.7229 41.9672 24.2815 42 26.1354 42C29.2936 42 29.5151 41.9918 29.6382 41.8523C29.7612 41.7129 29.7776 41.393 29.7776 38.9812V36.2578H32.4846V38.891C32.4846 41.4914 32.5093 41.7703 32.7636 41.9344C32.8128 41.9672 34.3714 42 36.2253 42C39.3835 42 39.605 41.9918 39.728 41.8523C39.8511 41.7129 39.8675 41.393 39.8675 38.9812V36.2578H40.8354C41.4753 36.2578 41.8362 36.225 41.9018 36.1594C42.0413 36.0199 42.0413 29.1949 41.9018 29.0555C41.8362 28.9898 41.4753 28.957 40.8354 28.957H39.8675V15.668H40.7288C41.2046 15.668 41.6721 15.627 41.7952 15.5695L42.0003 15.4793V11.9684C42.0003 8.58047 41.9921 8.44922 41.8444 8.36719C41.7542 8.32617 41.2784 8.28516 40.778 8.28516H39.8675V5.34844C39.8593 3.17461 39.8346 2.38711 39.7608 2.28867C39.7034 2.22305 38.9405 1.68164 38.0546 1.08281C36.8651 0.278908 36.3893 1.90735e-06 36.2007 1.90735e-06C36.012 1.90735e-06 35.528 0.278908 34.3221 1.09922C33.4198 1.69805 32.6405 2.28047 32.5913 2.38711C32.5175 2.53477 32.4846 3.33867 32.4846 5.43047V8.28516H29.7776V5.34844C29.7694 3.17461 29.7448 2.38711 29.671 2.28867C29.6136 2.22305 28.8507 1.68164 27.9647 1.08281C26.7753 0.278908 26.2995 1.90735e-06 26.1108 1.90735e-06C25.9221 1.90735e-06 25.4382 0.278908 24.2323 1.09922C23.33 1.69805 22.5507 2.28047 22.5014 2.38711C22.4276 2.53477 22.3948 3.33867 22.3948 5.43047V8.28516H19.6878V5.34844C19.6796 3.17461 19.655 2.38711 19.5811 2.28867C19.5237 2.22305 18.7608 1.67344 17.8749 1.08281C16.6608 0.270705 16.2014 1.90735e-06 16.0128 1.90735e-06C15.6682 1.90735e-06 12.4936 2.13281 12.3788 2.43633C12.3378 2.54297 12.305 3.90469 12.305 5.46328V8.28516H9.59793V5.34844C9.58973 3.17461 9.56512 2.38711 9.49129 2.28867C9.43387 2.22305 8.67098 1.67344 7.78504 1.08281C6.48074 0.20508 6.11981 1.90735e-06 5.89832 0.00820503C5.67684 0.00820503 5.26668 0.254299 4.01981 1.10742ZM7.19441 2.06719L8.44129 2.91211L8.44949 5.59453V8.28516H3.36356L3.37996 5.61094L3.40457 2.92852L4.63504 2.0836C5.3159 1.61602 5.88191 1.23867 5.90652 1.23047C5.93113 1.23047 6.50535 1.60781 7.19441 2.06719ZM17.2843 2.06719L18.5311 2.91211L18.5393 5.59453V8.28516H13.4534V2.96133L14.7085 2.1C15.3893 1.62422 15.9718 1.23867 15.9964 1.23047C16.021 1.23047 16.6034 1.60781 17.2843 2.06719ZM27.3741 2.06719L28.621 2.91211L28.6292 5.59453V8.28516H23.5432V2.96133L24.7983 2.1C25.4792 1.62422 26.0616 1.23867 26.0862 1.23047C26.1108 1.23047 26.6932 1.60781 27.3741 2.06719ZM37.4639 2.06719L38.719 2.91211V8.28516H33.6331V2.96133L34.8882 2.1C35.569 1.62422 36.1514 1.23867 36.1761 1.23047C36.2007 1.23047 36.7831 1.60781 37.4639 2.06719ZM40.9339 14.5195H1.14871V9.4336H40.9339V14.5195ZM8.44949 28.957H3.36356V15.668H8.44949V28.957ZM12.305 28.957H9.59793V15.668H12.305V28.957ZM18.5393 28.957H13.4534V15.668H18.5393V28.957ZM22.3948 28.957H19.6878V15.668H22.3948V28.957ZM28.6292 28.957H23.5432V15.668H28.6292V28.957ZM32.4846 28.957H29.7776V15.668H32.4846V28.957ZM38.719 28.957H33.6331V15.668H38.719V28.957ZM40.9339 35.1914H1.14871V30.0234H40.9339V35.1914ZM8.44949 40.9336H3.36356V36.2578H8.44949V40.9336ZM18.5393 40.9336H13.4534V36.2578H18.5393V40.9336ZM28.6292 40.9336H23.5432V36.2578H28.6292V40.9336ZM38.719 40.9336H33.6331V36.2578H38.719V40.9336Z" fill="#69B99D"/>
<path d="M4.73348 11.5418C4.57762 11.7305 4.54481 11.8781 4.61863 12.1488C4.70887 12.4852 5.02879 12.5672 6.05418 12.5344C6.80067 12.518 6.98934 12.4852 7.12879 12.3539C7.35027 12.157 7.35027 11.7797 7.13699 11.5664C6.98934 11.4187 6.86629 11.4023 5.92293 11.4023C5.02059 11.4023 4.84832 11.427 4.73348 11.5418Z" fill="#69B99D"/>
<path d="M14.8233 11.5418C14.6675 11.7305 14.6346 11.8781 14.7085 12.1488C14.7987 12.4852 15.1186 12.5672 16.144 12.5344C16.8905 12.518 17.0792 12.4852 17.2186 12.3539C17.4401 12.157 17.4401 11.7797 17.2268 11.5664C17.0792 11.4187 16.9561 11.4023 16.0128 11.4023C15.1104 11.4023 14.9382 11.427 14.8233 11.5418Z" fill="#69B99D"/>
<path d="M24.9132 11.55C24.7409 11.7387 24.7327 12.1734 24.905 12.3375C25.0936 12.5344 25.3397 12.5672 26.2749 12.5344C26.9804 12.518 27.169 12.4852 27.3085 12.3539C27.53 12.157 27.53 11.7797 27.3167 11.5664C27.169 11.4188 27.046 11.4023 26.1026 11.4023C25.1839 11.4023 25.028 11.4187 24.9132 11.55Z" fill="#69B99D"/>
<path d="M35.003 11.55C34.8307 11.7387 34.8225 12.1734 34.9948 12.3375C35.1835 12.5344 35.4296 12.5672 36.3647 12.5344C37.0702 12.518 37.2589 12.4852 37.3983 12.3539C37.6198 12.157 37.6198 11.7797 37.4065 11.5664C37.2589 11.4188 37.1358 11.4023 36.1925 11.4023C35.2737 11.4023 35.1179 11.4187 35.003 11.55Z" fill="#69B99D"/>
<path d="M4.7827 32.1398C4.5202 32.3039 4.5202 32.9109 4.7827 33.075C4.84012 33.1078 5.36512 33.1406 5.96395 33.1406C6.98934 33.1406 7.05496 33.1324 7.16981 32.9602C7.35027 32.7059 7.33387 32.4352 7.13699 32.2383C6.98934 32.0906 6.86629 32.0742 5.93113 32.0742C5.34871 32.0742 4.84012 32.107 4.7827 32.1398Z" fill="#69B99D"/>
<path d="M14.8725 32.1398C14.61 32.3039 14.61 32.9109 14.8725 33.075C14.93 33.1078 15.455 33.1406 16.0538 33.1406C17.0792 33.1406 17.1448 33.1324 17.2596 32.9602C17.4401 32.7059 17.4237 32.4352 17.2268 32.2383C17.0792 32.0906 16.9561 32.0742 16.021 32.0742C15.4386 32.0742 14.93 32.107 14.8725 32.1398Z" fill="#69B99D"/>
<path d="M24.9132 32.2219C24.7409 32.4105 24.7327 32.8453 24.905 33.0094C25.0034 33.116 25.2413 33.1406 26.1272 33.1406C27.169 33.1406 27.2346 33.1324 27.3495 32.9602C27.4233 32.8617 27.4807 32.6977 27.4807 32.6074C27.4807 32.5172 27.4233 32.3531 27.3495 32.2547C27.2346 32.0824 27.169 32.0742 26.1354 32.0742C25.1839 32.0742 25.028 32.0906 24.9132 32.2219Z" fill="#69B99D"/>
<path d="M35.003 32.2219C34.8307 32.4105 34.8225 32.8453 34.9948 33.0094C35.0932 33.116 35.3311 33.1406 36.2171 33.1406C37.2589 33.1406 37.3245 33.1324 37.4393 32.9602C37.5132 32.8617 37.5706 32.6977 37.5706 32.6074C37.5706 32.5172 37.5132 32.3531 37.4393 32.2547C37.3245 32.0824 37.2589 32.0742 36.2253 32.0742C35.2737 32.0742 35.1179 32.0906 35.003 32.2219Z" fill="#69B99D"/>
</svg>
