<svg width="27" height="34" viewBox="0 0 27 34" fill="none" xmlns="http://www.w3.org/2000/svg">
<path d="M2.47756 25.8934C2.63864 22.6675 4.52557 19.4416 7.30994 17.6274C7.77017 17.3238 8.18438 17.0658 8.2304 17.043L2.47756 25.8934ZM2.47756 25.8934L2.43153 26.7132L2.47756 25.8934ZM18.7696 17.043C18.8156 17.0658 19.2298 17.3238 19.6901 17.6274C22.4744 19.4416 24.3614 22.6675 24.5224 25.8934L18.7696 17.043ZM18.7696 17.043C18.7006 17.005 18.7006 16.9899 18.7696 16.9519M18.7696 17.043V16.9519M18.7696 16.9519C18.8156 16.9291 19.2298 16.6711 19.6901 16.3674M18.7696 16.9519L19.6901 16.3674M19.6901 16.3674C22.4744 14.5533 24.3614 11.3274 24.5224 8.09387M19.6901 16.3674L24.5224 8.09387M24.5224 8.09387L24.5685 7.28169M24.5224 8.09387L24.5685 7.28169M24.5685 7.28169H24.8216C25.5963 7.28169 26.5398 6.59097 26.8389 5.80156L24.5685 7.28169ZM0.254667 1.51025L0.254751 1.51003C0.451529 0.983547 0.989901 0.450188 1.50876 0.247566C1.68777 0.179447 1.80288 0.14048 3.32543 0.121445C4.84241 0.102478 7.74286 0.102474 13.477 0.102474H13.4771C19.2649 0.0986786 22.1634 0.0967865 23.6688 0.115753C25.164 0.13459 25.2719 0.174679 25.4635 0.245815L25.4692 0.247936L0.254667 1.51025ZM0.254667 1.51025C0.116737 1.87662 0.1 2.05312 0.1 3.63829C0.1 5.21677 0.116902 5.40713 0.254187 5.75749L0.254203 5.75748M0.254667 1.51025L0.254203 5.75748M0.254203 5.75748L0.25486 5.75925M0.254203 5.75748L0.25486 5.75925M0.25486 5.75925C0.525335 6.48988 1.31314 7.09445 2.07998 7.16691C2.08012 7.16693 2.08026 7.16694 2.08041 7.16695L2.43993 7.19723L2.52646 7.20452M0.25486 5.75925L2.52646 7.20452M2.52646 7.20452L2.53137 7.29122M2.52646 7.20452L2.53137 7.29122M2.53137 7.29122L2.5774 8.10339L2.57743 8.10405M2.53137 7.29122L2.57743 8.10405M2.57743 8.10405C2.73685 11.2891 4.6136 14.4864 7.36464 16.2837L7.36501 16.284M2.57743 8.10405L7.36501 16.284M7.36501 16.284C7.59453 16.4354 7.81257 16.5754 7.97888 16.6804C8.06205 16.7329 8.13211 16.7766 8.1841 16.8084C8.21012 16.8243 8.23138 16.8372 8.24739 16.8466L8.26683 16.8579L8.27271 16.8612C8.27427 16.862 8.27486 16.8623 8.27475 16.8623L8.27479 16.8622M7.36501 16.284L8.27479 16.8622M8.27479 16.8622L8.27857 16.8643M8.27479 16.8622L8.27857 16.8643M8.27857 16.8643C8.29661 16.8742 8.3172 16.8863 8.33409 16.9007C8.34826 16.9128 8.38217 16.945 8.38217 16.9974C8.38217 17.0499 8.34826 17.0821 8.33409 17.0942C8.3172 17.1086 8.29661 17.1207 8.27857 17.1306L8.27862 17.1307M8.27857 16.8643L8.27862 17.1307M8.27862 17.1307L8.27475 17.1326M8.27862 17.1307L8.27475 17.1326M8.27475 17.1326C8.27476 17.1326 8.27415 17.1329 8.27271 17.1337L8.26683 17.137L8.24739 17.1483C8.23138 17.1577 8.21012 17.1706 8.1841 17.1865C8.13211 17.2183 8.06205 17.262 7.97888 17.3145C7.81257 17.4194 7.59453 17.5595 7.36501 17.7109L7.36453 17.7112M8.27475 17.1326L7.36453 17.7112M7.36453 17.7112C4.60606 19.5085 2.73686 22.7056 2.57743 25.8984L2.5774 25.899M7.36453 17.7112L2.5774 25.899M2.5774 25.899L2.53138 26.7188L2.52608 26.8132M2.5774 25.899L2.52608 26.8132M2.52608 26.8132H2.43153M2.52608 26.8132H2.43153M2.43153 26.8132H2.17841C1.81857 26.8132 1.40933 26.9748 1.05054 27.2379C0.692344 27.5005 0.395908 27.8559 0.254635 28.2286C0.116734 28.595 0.1 28.7715 0.1 30.3566C0.1 31.9351 0.116902 32.1254 0.254187 32.4758L0.254194 32.4758M2.43153 26.8132L0.254194 32.4758M0.254194 32.4758L0.254649 32.477M0.254194 32.4758L0.254649 32.477M0.254649 32.477C0.436793 32.96 0.885807 33.4421 1.38562 33.6821L1.38562 33.6821M0.254649 32.477L1.38562 33.6821M1.38562 33.6821L1.38668 33.6827M1.38562 33.6821L1.38668 33.6827M1.38668 33.6827L1.74933 33.8621L13.4004 33.8848L13.4005 33.8848L25.0568 33.9L25.4692 33.747C25.4693 33.7469 25.4693 33.7469 25.4694 33.7469C26.0107 33.5441 26.541 33.026 26.7453 32.4846C26.8833 32.1183 26.9 31.9418 26.9 30.3566C26.9 28.7717 26.8833 28.595 26.7454 28.2288C26.6042 27.856 26.3077 27.5005 25.9495 27.2379C25.5907 26.9748 25.1814 26.8132 24.8216 26.8132H24.5685H24.4739M1.38668 33.6827L24.4739 26.8132M24.4739 26.8132L24.4686 26.7188M24.4739 26.8132L24.4686 26.7188M24.4686 26.7188L24.4226 25.899L24.4226 25.8984M24.4686 26.7188L24.4226 25.8984M24.4226 25.8984C24.2631 22.7056 22.3939 19.5085 19.6355 17.7112L19.635 17.7109M24.4226 25.8984L19.635 17.7109M19.635 17.7109C19.4055 17.5595 19.1874 17.4194 19.0211 17.3145C18.938 17.262 18.8679 17.2183 18.8159 17.1865C18.7899 17.1706 18.7686 17.1577 18.7526 17.1483L18.7332 17.137L18.7273 17.1337C18.7257 17.1328 18.7251 17.1326 18.7253 17.1326L18.7252 17.1327M19.635 17.7109L18.7252 17.1327M18.7252 17.1327L18.7214 17.1306M18.7252 17.1327L18.7214 17.1306M18.7214 17.1306C18.7034 17.1207 18.6828 17.1086 18.6659 17.0942C18.6517 17.0821 18.6178 17.0499 18.6178 16.9974C18.6178 16.945 18.6517 16.9128 18.6659 16.9007C18.6828 16.8863 18.7034 16.8742 18.7214 16.8643L18.7214 16.8642M18.7214 17.1306L18.7214 16.8642M18.7214 16.8642L18.7253 16.8623M18.7214 16.8642L18.7253 16.8623M18.7253 16.8623C18.7252 16.8623 18.7259 16.862 18.7273 16.8612L18.7332 16.8579L18.7526 16.8466C18.7686 16.8372 18.7899 16.8243 18.8159 16.8084C18.8679 16.7766 18.938 16.7329 19.0211 16.6804C19.1874 16.5754 19.4055 16.4354 19.635 16.284L19.6355 16.2837M18.7253 16.8623L19.6355 16.2837M19.6355 16.2837C22.3939 14.4864 24.2631 11.2893 24.4226 8.08889L24.4226 8.08821M19.6355 16.2837L24.4226 8.08821M24.4226 8.08821L24.4686 7.27604L24.474 7.18169M24.4226 8.08821L24.474 7.18169M24.474 7.18169H24.5685M24.474 7.18169H24.5685M24.5685 7.18169H24.8216M24.5685 7.18169H24.8216M16.2384 15.2668C17.2355 14.9177 17.8722 14.5837 18.7159 13.9537L16.2384 15.2668ZM16.2384 15.2668C15.2412 15.6084 15.0801 15.7071 14.8807 16.0335L16.2384 15.2668ZM24.8216 7.18169C25.1814 7.18169 25.5907 7.02008 25.9495 6.75701M24.8216 7.18169L25.9495 6.75701M25.9495 6.75701C26.3077 6.49435 26.6042 6.13887 26.7454 5.76612M25.9495 6.75701L26.7454 5.76612M26.7454 5.76612C26.8833 5.39989 26.9 5.22317 26.9 3.63829M26.7454 5.76612L26.9 3.63829M26.9 3.63829C26.9 2.0533 26.8833 1.87666 26.7454 1.51037M26.9 3.63829L26.7454 1.51037M26.7454 1.51037C26.5409 0.975922 26.0103 0.450638 25.4695 0.248039L26.7454 1.51037ZM24.6455 4.85276V4.95276H24.5455H13.5H2.45455H2.35455V4.85276V3.63829V2.42382V2.32382H2.45455H13.5H24.5455H24.6455V2.42382V3.63829V4.85276ZM22.091 8.02421L22.091 8.02444C21.9433 10.3013 20.6547 12.6354 18.7757 14.0338C17.9236 14.6701 17.2778 15.0088 16.2714 15.3612L16.2708 15.3614C15.7703 15.5329 15.4901 15.6401 15.3099 15.7427C15.1381 15.8406 15.0592 15.9331 14.966 16.0856L14.966 16.0856L14.965 16.0872C14.9207 16.1567 14.8815 16.2823 14.8542 16.4491C14.8275 16.6125 14.8138 16.8043 14.8138 16.9974C14.8138 17.1905 14.8275 17.3824 14.8542 17.5458C14.8815 17.7126 14.9207 17.8382 14.965 17.9077L14.965 17.9077L14.966 17.9093C15.0592 18.0618 15.1381 18.1543 15.3099 18.2522C15.4901 18.3548 15.7703 18.462 16.2708 18.6335L16.2714 18.6337C17.2778 18.9861 17.9236 19.3248 18.7757 19.9611C20.6547 21.3595 21.9433 23.6935 22.091 25.9628L22.091 25.9632L22.137 26.707L22.1436 26.8132H22.0372H13.5H4.96278H4.85714L4.86293 26.7077L4.90129 26.0094L4.9013 26.0092C5.02575 23.8233 6.25271 21.5356 8.04535 20.1072C8.89065 19.4319 9.68295 19.0016 10.7206 18.6338L10.7218 18.6334C11.2265 18.4618 11.5085 18.3565 11.6897 18.2547C11.8619 18.158 11.9405 18.0659 12.0335 17.9102L12.0334 17.9101L12.035 17.9077C12.0793 17.8382 12.1185 17.7126 12.1458 17.5458C12.1725 17.3824 12.1862 17.1905 12.1862 16.9974C12.1862 16.8043 12.1725 16.6125 12.1458 16.4491C12.1185 16.2823 12.0793 16.1567 12.035 16.0872L12.035 16.0872L12.034 16.0856C11.9408 15.9331 11.8619 15.8406 11.6901 15.7427C11.5099 15.6401 11.2297 15.5329 10.7292 15.3614L10.7286 15.3612C9.72217 15.0088 9.07644 14.6701 8.22426 14.0338L8.22423 14.0338C6.3531 12.6355 5.03351 10.2406 4.90131 7.98587L4.90129 7.9855L4.86293 7.28718L4.85714 7.18169H4.96278H13.5H22.0372H22.1437L22.137 7.28793L22.091 8.02421ZM24.6455 31.5711V31.6711H24.5455H13.5H2.45455H2.35455V31.5711V30.3566V29.1421V29.0421H2.45455H13.5H24.5455H24.6455V29.1421V30.3566V31.5711Z" fill="#69B99D" stroke="white" stroke-width="0.2"/>
</svg>
