<svg width="42" height="40" viewBox="0 0 42 40" fill="none" xmlns="http://www.w3.org/2000/svg">
<path d="M26.7668 0.870285C26.3484 0.903097 26.0449 1.182 25.9137 1.65778C25.7906 2.11716 25.8727 3.29841 26.1352 4.61911C26.4387 6.18591 26.4715 6.79294 26.2664 7.59685C25.9629 8.80271 25.2738 10.066 23.7891 12.1742C22.7555 13.6343 22.6488 13.7328 21.8777 13.9707C21.525 14.0855 21.2051 14.1758 21.1559 14.1758C21.1148 14.1758 21.082 13.9543 21.082 13.6836C21.082 13.1093 20.9508 12.7402 20.6309 12.4531L20.4094 12.248L15.5203 12.2234C9.94219 12.1988 10.1062 12.1824 9.43359 12.8551C8.77734 13.5113 8.77734 13.5195 8.77734 17.5801V21.1238L8.1293 21.1812C4.89727 21.4519 1.95234 23.5929 0.680859 26.6117C0.139453 27.875 0.0410156 28.4246 0.0410156 30.1308C0.0410156 31.5828 0.0574219 31.7468 0.2625 32.4933C0.689062 34.0109 1.36992 35.2168 2.43633 36.3242C4.24102 38.2191 6.34922 39.1215 8.98242 39.1215C10.8855 39.1215 12.3703 38.6867 13.9535 37.6531C15.791 36.4554 17.1527 34.5277 17.7188 32.3211L17.809 31.9765H18.9738C19.9172 31.9765 20.1879 31.9519 20.4176 31.8289C20.8277 31.6238 21.0246 31.3121 21.0656 30.8035L21.0984 30.3605L21.566 30.5492C22.452 30.9101 22.7473 30.9183 29.7363 30.8937L36.3809 30.8691L36.8484 30.6804C37.5047 30.4179 38.0789 29.8683 38.407 29.2039C38.6449 28.7199 38.6777 28.5804 38.6777 27.957C38.6777 27.5715 38.6531 27.1449 38.6121 27.0136C38.5547 26.7758 38.5629 26.7593 38.9648 26.6199C39.5473 26.4148 40.2855 25.7011 40.6219 25.0285C40.95 24.3558 41.032 23.4125 40.8187 22.6742L40.6793 22.1984L41.0977 21.7554C41.3273 21.5093 41.6145 21.0992 41.7375 20.8449C41.9344 20.4183 41.959 20.2789 41.959 19.4258C41.959 18.5808 41.9344 18.4332 41.7457 18.023C41.6227 17.7687 41.393 17.4078 41.2289 17.2273L40.9254 16.891L41.0895 16.3496C41.6473 14.5449 40.827 12.609 39.1617 11.7886L38.5957 11.5097L35.4539 11.4851C33.034 11.4687 32.3121 11.4359 32.3449 11.3621C32.8535 10.1972 32.9848 9.8281 33.1406 9.21286C33.3949 8.18747 33.3457 6.65349 33.0258 5.68552C32.1809 3.17536 30.5156 1.29685 28.8504 0.976925C28.3664 0.886691 27.2754 0.829269 26.7668 0.870285ZM28.3418 2.32224C29.3262 2.42888 30.2941 3.29021 31.0898 4.76677C31.6395 5.77575 31.8363 6.46482 31.8855 7.45739C31.9266 8.22849 31.902 8.42536 31.7215 9.06521C31.6066 9.46716 31.377 10.0824 31.2211 10.4351C30.7289 11.5097 30.8848 12.289 31.6641 12.6746C32.0168 12.8633 32.0742 12.8633 35.0684 12.8633C38.0789 12.8633 38.1035 12.8633 38.5137 13.0601C39.0223 13.2898 39.5637 13.8886 39.7359 14.3972C39.9574 15.0453 39.9082 15.6277 39.5801 16.2758C39.4078 16.6203 39.293 16.9648 39.293 17.1453C39.293 17.4242 39.334 17.4816 39.7359 17.7769C40.548 18.3758 40.827 19.3765 40.4332 20.2461C40.2199 20.7218 39.9984 20.9597 39.5227 21.1976C38.8828 21.5176 38.8008 21.9031 39.2273 22.5593C39.8262 23.5109 39.5062 24.7578 38.5301 25.2664C38.3004 25.3812 37.9805 25.4551 37.5457 25.4797C36.9879 25.5125 36.8895 25.5453 36.75 25.7258C36.4875 26.0539 36.5367 26.3902 36.9141 26.8332C37.6277 27.7027 37.3898 28.8183 36.3973 29.3023L35.9625 29.5238L29.318 29.4992C21.9844 29.4746 22.4848 29.5074 21.5332 28.9332L21.082 28.6625V22.1984C21.082 16.1281 21.0902 15.7343 21.2297 15.6605C21.3035 15.6195 21.6645 15.5047 22.0254 15.4062C23.3953 15.0289 23.707 14.7582 24.9949 12.9125C26.734 10.4269 27.3984 9.13083 27.6937 7.62966C27.866 6.74372 27.8332 6.11208 27.5707 4.67654C27.4395 3.97107 27.3 3.11794 27.2672 2.79802L27.2098 2.19919L27.5953 2.24021C27.8004 2.26482 28.1367 2.29763 28.3418 2.32224ZM19.6875 30.582H17.9895L17.9402 29.614C17.7844 26.4886 16.0289 23.7324 13.1906 22.1738C12.5426 21.8211 11.4516 21.4355 10.7051 21.2961L10.1719 21.2058V14.1593L10.7297 13.6015H19.6875V30.582ZM11.0168 22.8218C13.609 23.5929 15.5039 25.4797 16.2996 28.0965C16.4883 28.7363 16.5129 28.9578 16.5211 30.0898C16.5293 31.1726 16.5047 31.4597 16.3406 32.0422C15.3398 35.7008 11.9191 38.0879 8.21953 37.7105C5.72578 37.4562 3.48633 35.9633 2.30508 33.773C1.64883 32.5672 1.39453 31.5254 1.39453 30.098C1.39453 27.9898 2.17383 26.1851 3.70781 24.7086C4.81523 23.6504 6.08672 22.9695 7.54687 22.6578C8.4082 22.4773 10.1227 22.5593 11.0168 22.8218Z" fill="#69B99D"/>
<path d="M13.2727 26.9562C13.1906 26.989 11.8781 28.039 10.3441 29.2941C8.81016 30.5492 7.53047 31.5828 7.48945 31.591C7.45664 31.5992 6.99727 31.0168 6.47227 30.2949C5.72578 29.2613 5.47148 28.966 5.27461 28.9168C4.75781 28.7609 4.24102 29.2695 4.41328 29.7535C4.52812 30.0734 6.84961 33.2562 7.02187 33.3218C7.44023 33.4859 7.55508 33.4121 10.6312 30.9019C14.2734 27.9242 14.1914 27.998 14.1914 27.6617C14.1914 27.2843 14.1176 27.1449 13.8551 27.0136C13.609 26.8824 13.4941 26.8742 13.2727 26.9562Z" fill="#69B99D"/>
</svg>
