<svg xmlns="http://www.w3.org/2000/svg" width="44" height="43" viewBox="0 0 44 43" fill="none">
<path d="M1.35144 19.6015C-0.0666529 20.1033 -0.459355 21.8705 0.609668 22.9395C0.827836 23.1577 1.19872 23.3976 1.43871 23.4631C2.06048 23.6267 41.9416 23.6267 42.5634 23.4631C43.1415 23.2995 43.7633 22.6668 43.9269 22.0668C44.2214 20.9651 43.5997 19.8524 42.5306 19.547C42.2579 19.4815 35.5056 19.4379 21.9465 19.4379C5.13665 19.4488 1.70051 19.4706 1.35144 19.6015Z" fill="#69B99D"/>
<path d="M21.2918 28.1209C20.8336 28.35 8.83438 40.3602 8.63803 40.7856C8.28896 41.5165 8.55076 42.3455 9.25981 42.7818C9.60888 43 9.83795 43 22.0008 43C34.1637 43 34.3928 43 34.7418 42.7818C35.4509 42.3455 35.7127 41.5165 35.3636 40.7747C35.1454 40.3165 23.0153 28.2082 22.6226 28.0664C22.1863 27.9028 21.6736 27.9246 21.2918 28.1209Z" fill="#69B99D"/>
<path d="M22.7102 14.9C23.1683 14.6709 35.1676 2.66077 35.3639 2.23534C35.713 1.50448 35.4512 0.675439 34.7421 0.239103C34.3931 0.0209352 34.164 0.0209352 22.0011 0.0209362C9.83827 0.0209373 9.60919 0.0209373 9.26012 0.239105C8.55108 0.675441 8.28928 1.50448 8.63835 2.24625C8.85651 2.7044 20.9867 14.8127 21.3794 14.9545C21.8157 15.1182 22.3284 15.0963 22.7102 14.9Z" fill="#69B99D"/>
</svg>