<svg width="10" height="18" viewBox="0 0 10 18" fill="none" xmlns="http://www.w3.org/2000/svg">
<path d="M1.71242 0.249898C1.89916 0.249263 2.08368 0.290479 2.2524 0.370515C2.42112 0.450551 2.56977 0.567375 2.68742 0.7124L8.72492 8.2124C8.90877 8.43607 9.00928 8.71662 9.00928 9.00615C9.00928 9.29568 8.90877 9.57623 8.72492 9.7999L2.47492 17.2999C2.26274 17.5552 1.95786 17.7157 1.62732 17.7462C1.29679 17.7766 0.967689 17.6746 0.712418 17.4624C0.457147 17.2502 0.296617 16.9453 0.266142 16.6148C0.235667 16.2843 0.337744 15.9552 0.549917 15.6999L6.13742 8.9999L0.73742 2.2999C0.584566 2.11642 0.487469 1.89299 0.45762 1.65606C0.42777 1.41912 0.466417 1.17859 0.568986 0.96293C0.671556 0.74727 0.833756 0.565507 1.03639 0.439143C1.23903 0.312782 1.47363 0.24711 1.71242 0.249898Z" fill="#24AB70"/>
</svg>
