<svg width="32" height="38" viewBox="0 0 32 38" fill="none" xmlns="http://www.w3.org/2000/svg">
<path d="M9.08555 0.789059C8.9707 0.879295 8.83125 1.09258 8.78203 1.26484C8.63438 1.70781 8.15859 2.56914 7.77305 3.07773C7.32188 3.66836 6.37852 4.40664 5.61563 4.77578C4.98398 5.0793 3.75352 5.38281 3.13828 5.38281C2.76094 5.38281 2.34258 5.57148 2.25234 5.78476C1.94883 6.55586 0.234375 11.7977 0.234375 11.9863C0.234375 12.3227 3.76172 26.391 3.88477 26.5387C3.94219 26.6043 6.38672 28.8766 9.31524 31.5836C12.252 34.2824 14.8605 36.6941 15.1148 36.9402C15.5496 37.3504 15.607 37.375 16.0008 37.375C16.3945 37.375 16.452 37.3504 16.8867 36.9402C17.141 36.6941 19.7578 34.2824 22.6863 31.5836C25.623 28.8766 28.0594 26.6043 28.1168 26.5387C28.248 26.3746 31.7672 12.3062 31.759 11.9453C31.759 11.568 29.7984 5.80937 29.6016 5.6125C29.4375 5.44843 29.3555 5.43203 28.3383 5.31718C26.066 5.06289 24.1547 3.61094 23.3344 1.51914C22.9488 0.526562 23.7199 0.624996 16.0008 0.624996C9.40547 0.624996 9.29063 0.624996 9.08555 0.789059ZM22.0055 3.02851C23.1375 5.21054 25.3605 6.74453 27.9938 7.14648C28.3383 7.1957 28.1988 6.88398 29.2488 9.98476L29.9297 12.0109L28.248 18.7457L26.5582 25.4887L21.3246 30.3203C18.4453 32.9863 16.05 35.1602 16.0008 35.1602C15.9516 35.1602 13.5563 32.9863 10.677 30.3203L5.44336 25.4887L3.76172 18.7785L2.08828 12.0602L2.90039 9.62383L3.7043 7.1957L4.00781 7.14648C5.31211 6.94961 6.55078 6.47383 7.55977 5.78476C8.56055 5.11211 9.62695 3.86523 10.1191 2.81523L10.2996 2.42968H16.0008H21.702L22.0055 3.02851Z" fill="#69B99D"/>
</svg>
