<svg width="14" height="14" viewBox="0 0 14 14" fill="none" xmlns="http://www.w3.org/2000/svg">
<path d="M7.00034 4.67826C5.71825 4.67826 4.67891 5.71759 4.67891 6.99968C4.67891 8.28177 5.71825 9.32111 7.00034 9.32111C8.28243 9.32111 9.32177 8.28177 9.32177 6.99968C9.32177 5.71759 8.28243 4.67826 7.00034 4.67826Z" fill="#29CDB5"/>
<path fill-rule="evenodd" clip-rule="evenodd" d="M3.2643 0.629304C5.72724 0.354034 8.27346 0.354034 10.7364 0.629304C12.0924 0.780857 13.1861 1.84927 13.3453 3.21002C13.6397 5.72788 13.6397 8.27149 13.3453 10.7893C13.1861 12.1501 12.0924 13.2185 10.7364 13.3701C8.27346 13.6453 5.72724 13.6453 3.2643 13.3701C1.9083 13.2185 0.814588 12.1501 0.655435 10.7893C0.360949 8.27148 0.360949 5.72788 0.655435 3.21002C0.814588 1.84927 1.9083 0.780857 3.2643 0.629304ZM10.5718 2.71397C10.1773 2.71397 9.85748 3.03377 9.85748 3.42826C9.85748 3.82274 10.1773 4.14254 10.5718 4.14254C10.9663 4.14254 11.2861 3.82274 11.2861 3.42826C11.2861 3.03377 10.9663 2.71397 10.5718 2.71397ZM3.60748 6.99968C3.60748 5.12586 5.12652 3.60683 7.00034 3.60683C8.87416 3.60683 10.3932 5.12586 10.3932 6.99968C10.3932 8.87351 8.87416 10.3925 7.00034 10.3925C5.12652 10.3925 3.60748 8.87351 3.60748 6.99968Z" fill="#29CDB5"/>
</svg>
