<svg width="137" height="41" viewBox="0 0 137 41" fill="none" xmlns="http://www.w3.org/2000/svg">
<path d="M48.439 26.0593C48.3196 26.0593 48.2219 26.0204 48.1459 25.9426C48.0699 25.8647 48.0318 25.7647 48.0318 25.6424V14.8017C48.0318 14.6794 48.0699 14.5793 48.1459 14.5015C48.2219 14.4237 48.3196 14.3847 48.439 14.3847H55.7033C55.8227 14.3847 55.9204 14.4237 55.9964 14.5015C56.0724 14.5793 56.1105 14.6794 56.1105 14.8017V16.2193C56.1105 16.3416 56.0724 16.4417 55.9964 16.5195C55.9204 16.5974 55.8227 16.6363 55.7033 16.6363H50.5727V19.4548H55.3775C55.497 19.4548 55.5947 19.4938 55.6707 19.5716C55.7467 19.6494 55.7847 19.7495 55.7847 19.8718V21.2894C55.7847 21.4006 55.7467 21.4951 55.6707 21.5729C55.5947 21.6508 55.497 21.6897 55.3775 21.6897H50.5727V25.6424C50.5727 25.7647 50.5347 25.8647 50.4587 25.9426C50.3827 26.0204 50.285 26.0593 50.1655 26.0593H48.439Z" fill="#69B99D"/>
<path d="M61.5672 26.2261C60.3185 26.2261 59.3249 25.8703 58.5866 25.1587C57.8591 24.4471 57.4736 23.4131 57.4302 22.0566C57.4302 21.9677 57.4302 21.8509 57.4302 21.7064C57.4302 21.5507 57.4302 21.4284 57.4302 21.3395C57.4736 20.4833 57.6636 19.7495 58.0002 19.138C58.3368 18.5153 58.8092 18.0428 59.4172 17.7203C60.0253 17.3868 60.7365 17.22 61.5509 17.22C62.463 17.22 63.2231 17.4146 63.8312 17.8037C64.4501 18.1818 64.9116 18.7043 65.2156 19.3715C65.5305 20.0275 65.6879 20.7835 65.6879 21.6397V22.0233C65.6879 22.1344 65.6445 22.2289 65.5576 22.3068C65.4816 22.3846 65.3893 22.4235 65.2807 22.4235H59.9547C59.9547 22.4346 59.9547 22.4569 59.9547 22.4902C59.9547 22.5125 59.9547 22.5347 59.9547 22.5569C59.9656 22.9127 60.0307 23.2407 60.1502 23.5409C60.2805 23.83 60.4596 24.0635 60.6877 24.2414C60.9265 24.4193 61.2089 24.5083 61.5346 24.5083C61.8061 24.5083 62.0287 24.4694 62.2024 24.3915C62.3761 24.3137 62.5173 24.2192 62.6259 24.108C62.7453 23.9968 62.8322 23.9023 62.8865 23.8245C62.9842 23.7133 63.0602 23.6466 63.1145 23.6243C63.1796 23.591 63.2774 23.5743 63.4077 23.5743H65.1016C65.2102 23.5743 65.297 23.6077 65.3622 23.6744C65.4382 23.73 65.4708 23.8134 65.4599 23.9245C65.449 24.1024 65.3567 24.3248 65.183 24.5917C65.0201 24.8474 64.7758 25.1031 64.4501 25.3588C64.1243 25.6035 63.7171 25.8092 63.2285 25.9759C62.7507 26.1427 62.197 26.2261 61.5672 26.2261ZM59.9547 20.9058H63.1471V20.8725C63.1471 20.4722 63.0819 20.1275 62.9516 19.8384C62.8322 19.5382 62.653 19.3047 62.4141 19.138C62.1753 18.9712 61.8875 18.8878 61.5509 18.8878C61.2143 18.8878 60.9265 18.9712 60.6877 19.138C60.4488 19.3047 60.2642 19.5382 60.1339 19.8384C60.0144 20.1275 59.9547 20.4722 59.9547 20.8725V20.9058Z" fill="#69B99D"/>
<path d="M67.8766 26.0593C67.768 26.0593 67.6757 26.0204 67.5997 25.9426C67.5237 25.8647 67.4857 25.7647 67.4857 25.6424V17.8037C67.4857 17.6814 67.5237 17.5814 67.5997 17.5035C67.6757 17.4257 67.768 17.3868 67.8766 17.3868H69.4728C69.5922 17.3868 69.6899 17.4257 69.766 17.5035C69.842 17.5814 69.88 17.6814 69.88 17.8037V18.4542C70.1623 18.0984 70.526 17.8037 70.9712 17.5702C71.4164 17.3367 71.9593 17.22 72.6 17.22C73.2406 17.22 73.7998 17.3701 74.2776 17.6703C74.7662 17.9594 75.1463 18.3875 75.4177 18.9545C75.7 19.5104 75.8412 20.1887 75.8412 20.9892V25.6424C75.8412 25.7647 75.7978 25.8647 75.7109 25.9426C75.6349 26.0204 75.5426 26.0593 75.434 26.0593H73.7075C73.5881 26.0593 73.4904 26.0204 73.4144 25.9426C73.3383 25.8647 73.3003 25.7647 73.3003 25.6424V21.0893C73.3003 20.5 73.1592 20.0441 72.8769 19.7217C72.6054 19.3881 72.2036 19.2214 71.6716 19.2214C71.1612 19.2214 70.7541 19.3881 70.45 19.7217C70.146 20.0441 69.994 20.5 69.994 21.0893V25.6424C69.994 25.7647 69.956 25.8647 69.88 25.9426C69.804 26.0204 69.7117 26.0593 69.6031 26.0593H67.8766Z" fill="#69B99D"/>
<path d="M81.7247 26.2261C80.9321 26.2261 80.2317 26.076 79.6236 25.7758C79.0264 25.4756 78.5541 25.042 78.2066 24.4749C77.8591 23.8967 77.6691 23.2074 77.6365 22.4068C77.6257 22.2289 77.6203 22.0066 77.6203 21.7397C77.6203 21.4618 77.6257 21.2338 77.6365 21.0559C77.6691 20.2443 77.8537 19.5549 78.1903 18.9879C78.5378 18.4097 79.0156 17.9705 79.6236 17.6703C80.2317 17.3701 80.9321 17.22 81.7247 17.22C82.4522 17.22 83.0711 17.3256 83.5815 17.5369C84.0918 17.737 84.5099 17.9927 84.8356 18.3041C85.1614 18.6154 85.4003 18.9434 85.5523 19.2881C85.7151 19.6216 85.802 19.9163 85.8129 20.172C85.8237 20.2832 85.7857 20.3833 85.6989 20.4722C85.6229 20.55 85.5306 20.5889 85.422 20.5889H83.6792C83.5706 20.5889 83.4838 20.5612 83.4186 20.5056C83.3643 20.4388 83.31 20.3499 83.2557 20.2387C83.1037 19.8496 82.9083 19.5716 82.6694 19.4048C82.4305 19.238 82.1319 19.1546 81.7736 19.1546C81.285 19.1546 80.8995 19.3159 80.6172 19.6383C80.3348 19.9607 80.1828 20.4611 80.1611 21.1393C80.1503 21.5729 80.1503 21.9677 80.1611 22.3235C80.1937 23.0128 80.3457 23.5132 80.6172 23.8245C80.8995 24.1358 81.285 24.2915 81.7736 24.2915C82.1536 24.2915 82.4576 24.2081 82.6857 24.0413C82.9137 23.8745 83.1037 23.5965 83.2557 23.2074C83.2992 23.0962 83.3535 23.0128 83.4186 22.9572C83.4838 22.8905 83.5706 22.8572 83.6792 22.8572H85.422C85.5306 22.8572 85.6229 22.9016 85.6989 22.9906C85.7857 23.0684 85.8237 23.1629 85.8129 23.2741C85.802 23.4631 85.7477 23.6855 85.65 23.9412C85.5631 24.1969 85.4165 24.4582 85.2102 24.7251C85.0148 24.9919 84.7596 25.2421 84.4447 25.4756C84.1298 25.698 83.7444 25.8814 83.2883 26.026C82.8431 26.1594 82.3219 26.2261 81.7247 26.2261Z" fill="#69B99D"/>
<path d="M91.3587 26.2261C90.11 26.2261 89.1164 25.8703 88.3781 25.1587C87.6506 24.4471 87.2651 23.4131 87.2217 22.0566C87.2217 21.9677 87.2217 21.8509 87.2217 21.7064C87.2217 21.5507 87.2217 21.4284 87.2217 21.3395C87.2651 20.4833 87.4551 19.7495 87.7917 19.138C88.1283 18.5153 88.6007 18.0428 89.2087 17.7203C89.8168 17.3868 90.528 17.22 91.3424 17.22C92.2545 17.22 93.0146 17.4146 93.6227 17.8037C94.2416 18.1818 94.703 18.7043 95.0071 19.3715C95.322 20.0275 95.4794 20.7835 95.4794 21.6397V22.0233C95.4794 22.1344 95.436 22.2289 95.3491 22.3068C95.2731 22.3846 95.1808 22.4235 95.0722 22.4235H89.7462C89.7462 22.4346 89.7462 22.4569 89.7462 22.4902C89.7462 22.5125 89.7462 22.5347 89.7462 22.5569C89.7571 22.9127 89.8222 23.2407 89.9417 23.5409C90.072 23.83 90.2511 24.0635 90.4792 24.2414C90.718 24.4193 91.0004 24.5083 91.3261 24.5083C91.5976 24.5083 91.8202 24.4694 91.9939 24.3915C92.1676 24.3137 92.3088 24.2192 92.4174 24.108C92.5368 23.9968 92.6237 23.9023 92.678 23.8245C92.7757 23.7133 92.8517 23.6466 92.906 23.6243C92.9711 23.591 93.0689 23.5743 93.1992 23.5743H94.8931C95.0016 23.5743 95.0885 23.6077 95.1537 23.6744C95.2297 23.73 95.2623 23.8134 95.2514 23.9245C95.2405 24.1024 95.1482 24.3248 94.9745 24.5917C94.8116 24.8474 94.5673 25.1031 94.2416 25.3588C93.9158 25.6035 93.5086 25.8092 93.02 25.9759C92.5422 26.1427 91.9885 26.2261 91.3587 26.2261ZM89.7462 20.9058H92.9386V20.8725C92.9386 20.4722 92.8734 20.1275 92.7431 19.8384C92.6237 19.5382 92.4445 19.3047 92.2056 19.138C91.9668 18.9712 91.679 18.8878 91.3424 18.8878C91.0058 18.8878 90.718 18.9712 90.4792 19.138C90.2403 19.3047 90.0557 19.5382 89.9254 19.8384C89.8059 20.1275 89.7462 20.4722 89.7462 20.8725V20.9058Z" fill="#69B99D"/>
<path d="M101.561 26.2261C100.518 26.2261 99.6443 26.0704 98.9385 25.7591C98.2436 25.4478 97.717 25.042 97.3586 24.5416C97.0003 24.0413 96.8103 23.5076 96.7886 22.9405C96.7886 22.8516 96.8212 22.7738 96.8863 22.707C96.9515 22.6292 97.0329 22.5903 97.1306 22.5903H98.8734C99.0145 22.5903 99.1231 22.6237 99.1991 22.6904C99.2751 22.746 99.3457 22.8182 99.4109 22.9072C99.4869 23.0962 99.6063 23.2797 99.7692 23.4576C99.9429 23.6355 100.176 23.7856 100.47 23.9079C100.763 24.0191 101.126 24.0746 101.561 24.0746C102.267 24.0746 102.793 23.9579 103.141 23.7244C103.499 23.4909 103.678 23.174 103.678 22.7738C103.678 22.4847 103.58 22.2512 103.385 22.0733C103.2 21.8954 102.902 21.7342 102.489 21.5896C102.087 21.4451 101.55 21.2894 100.877 21.1226C100.062 20.9447 99.3674 20.7168 98.7919 20.4388C98.2273 20.1498 97.7984 19.7828 97.5052 19.3381C97.2229 18.8822 97.0817 18.3207 97.0817 17.6536C97.0817 16.9865 97.2609 16.3972 97.6192 15.8858C97.9776 15.3632 98.4825 14.9574 99.134 14.6683C99.7855 14.3681 100.562 14.218 101.463 14.218C102.191 14.218 102.831 14.318 103.385 14.5182C103.95 14.7183 104.417 14.9796 104.786 15.302C105.166 15.6245 105.454 15.9692 105.649 16.3361C105.844 16.703 105.948 17.0588 105.958 17.4035C105.958 17.4924 105.926 17.5758 105.861 17.6536C105.796 17.7203 105.714 17.7537 105.616 17.7537H103.792C103.684 17.7537 103.586 17.7315 103.499 17.687C103.412 17.6425 103.342 17.5647 103.287 17.4535C103.222 17.1644 103.027 16.9142 102.701 16.703C102.386 16.4806 101.973 16.3694 101.463 16.3694C100.931 16.3694 100.508 16.4695 100.193 16.6696C99.8886 16.8698 99.7366 17.1755 99.7366 17.5869C99.7366 17.8538 99.8126 18.0817 99.9646 18.2707C100.128 18.4486 100.394 18.6098 100.763 18.7544C101.143 18.8878 101.642 19.0379 102.261 19.2047C103.217 19.4048 103.993 19.6439 104.59 19.9218C105.187 20.1998 105.627 20.5612 105.91 21.0059C106.192 21.4395 106.333 21.9899 106.333 22.657C106.333 23.402 106.127 24.0413 105.714 24.575C105.312 25.1087 104.753 25.5201 104.037 25.8092C103.331 26.0871 102.505 26.2261 101.561 26.2261Z" fill="#69B99D"/>
<path d="M108.479 26.0593C108.36 26.0593 108.262 26.0204 108.186 25.9426C108.11 25.8647 108.072 25.7647 108.072 25.6424V14.6349C108.072 14.5126 108.11 14.4125 108.186 14.3347C108.262 14.2569 108.36 14.218 108.479 14.218H110.238C110.347 14.218 110.439 14.2569 110.515 14.3347C110.591 14.4125 110.629 14.5126 110.629 14.6349V18.3875C110.922 18.0317 111.281 17.7481 111.704 17.5369C112.127 17.3256 112.638 17.22 113.235 17.22C113.876 17.22 114.44 17.3701 114.929 17.6703C115.428 17.9594 115.819 18.3875 116.102 18.9545C116.384 19.5104 116.525 20.1887 116.525 20.9892V25.6424C116.525 25.7647 116.487 25.8647 116.411 25.9426C116.335 26.0204 116.237 26.0593 116.118 26.0593H114.343C114.234 26.0593 114.142 26.0204 114.066 25.9426C113.99 25.8647 113.952 25.7647 113.952 25.6424V21.0893C113.952 20.5 113.811 20.0441 113.528 19.7217C113.246 19.3881 112.844 19.2214 112.323 19.2214C111.813 19.2214 111.4 19.3881 111.085 19.7217C110.781 20.0441 110.629 20.5 110.629 21.0893V25.6424C110.629 25.7647 110.591 25.8647 110.515 25.9426C110.439 26.0204 110.347 26.0593 110.238 26.0593H108.479Z" fill="#69B99D"/>
<path d="M122.52 26.2261C121.619 26.2261 120.864 26.076 120.256 25.7758C119.648 25.4645 119.181 25.0253 118.856 24.4582C118.541 23.8912 118.367 23.2296 118.334 22.4736C118.324 22.2512 118.318 22.001 118.318 21.7231C118.318 21.434 118.324 21.1838 118.334 20.9725C118.367 20.2054 118.552 19.5438 118.888 18.9879C119.225 18.4208 119.697 17.9872 120.305 17.687C120.913 17.3757 121.652 17.22 122.52 17.22C123.378 17.22 124.111 17.3757 124.719 17.687C125.327 17.9872 125.8 18.4208 126.136 18.9879C126.473 19.5438 126.657 20.2054 126.69 20.9725C126.712 21.1838 126.723 21.434 126.723 21.7231C126.723 22.001 126.712 22.2512 126.69 22.4736C126.657 23.2296 126.478 23.8912 126.152 24.4582C125.838 25.0253 125.376 25.4645 124.768 25.7758C124.16 26.076 123.411 26.2261 122.52 26.2261ZM122.52 24.3915C123.052 24.3915 123.454 24.2247 123.726 23.8912C123.997 23.5465 124.144 23.0462 124.165 22.3902C124.176 22.2234 124.182 22.001 124.182 21.7231C124.182 21.4451 124.176 21.2227 124.165 21.0559C124.144 20.411 123.997 19.9163 123.726 19.5716C123.454 19.2269 123.052 19.0546 122.52 19.0546C121.988 19.0546 121.581 19.2269 121.299 19.5716C121.027 19.9163 120.881 20.411 120.859 21.0559C120.848 21.2227 120.843 21.4451 120.843 21.7231C120.843 22.001 120.848 22.2234 120.859 22.3902C120.881 23.0462 121.027 23.5465 121.299 23.8912C121.581 24.2247 121.988 24.3915 122.52 24.3915Z" fill="#69B99D"/>
<path d="M129.003 29.2281C128.883 29.2281 128.786 29.1892 128.71 29.1114C128.634 29.0336 128.596 28.9335 128.596 28.8112V17.8037C128.596 17.6814 128.634 17.5814 128.71 17.5035C128.786 17.4257 128.883 17.3868 129.003 17.3868H130.55C130.67 17.3868 130.767 17.4257 130.843 17.5035C130.919 17.5814 130.957 17.6814 130.957 17.8037V18.4375C131.218 18.0817 131.555 17.7926 131.967 17.5702C132.38 17.3367 132.896 17.22 133.514 17.22C134.079 17.22 134.568 17.3145 134.98 17.5035C135.404 17.6814 135.757 17.9427 136.039 18.2874C136.332 18.6209 136.555 19.0268 136.707 19.5049C136.87 19.983 136.962 20.5222 136.984 21.1226C136.995 21.3339 137 21.534 137 21.7231C137 21.9121 136.995 22.1178 136.984 22.3401C136.973 22.9072 136.886 23.4298 136.723 23.9079C136.571 24.386 136.348 24.7974 136.055 25.142C135.762 25.4867 135.404 25.7536 134.98 25.9426C134.568 26.1316 134.079 26.2261 133.514 26.2261C132.961 26.2261 132.477 26.126 132.065 25.9259C131.663 25.7146 131.332 25.4311 131.071 25.0753V28.8112C131.071 28.9335 131.033 29.0336 130.957 29.1114C130.881 29.1892 130.789 29.2281 130.68 29.2281H129.003ZM132.782 24.2247C133.194 24.2247 133.52 24.1358 133.759 23.9579C133.998 23.7689 134.166 23.5243 134.264 23.2241C134.372 22.9239 134.437 22.5959 134.459 22.2401C134.481 21.8954 134.481 21.5507 134.459 21.206C134.437 20.8502 134.372 20.5222 134.264 20.222C134.166 19.9218 133.998 19.6828 133.759 19.5049C133.52 19.3159 133.194 19.2214 132.782 19.2214C132.38 19.2214 132.054 19.3159 131.804 19.5049C131.555 19.6939 131.375 19.9329 131.267 20.222C131.158 20.5111 131.093 20.8224 131.071 21.156C131.061 21.3561 131.055 21.5618 131.055 21.7731C131.055 21.9843 131.061 22.1956 131.071 22.4068C131.082 22.7182 131.147 23.0128 131.267 23.2908C131.397 23.5576 131.582 23.78 131.821 23.9579C132.07 24.1358 132.391 24.2247 132.782 24.2247Z" fill="#69B99D"/>
<path d="M40.0401 20.5C40.0401 31.8218 31.0768 41 20.0201 41C8.96328 41 0 31.8218 0 20.5C0 9.17816 8.96328 0 20.0201 0C31.0768 0 40.0401 9.17816 40.0401 20.5Z" fill="#69B99D"/>
<path d="M15.4843 28.4915C15.3176 28.4915 15.1812 28.4372 15.0751 28.3286C14.969 28.2199 14.916 28.0802 14.916 27.9095V12.7778C14.916 12.607 14.969 12.4674 15.0751 12.3587C15.1812 12.2501 15.3176 12.1958 15.4843 12.1958H25.624C25.7907 12.1958 25.9271 12.2501 26.0332 12.3587C26.1393 12.4674 26.1923 12.607 26.1923 12.7778V14.7565C26.1923 14.9272 26.1393 15.0669 26.0332 15.1756C25.9271 15.2842 25.7907 15.3385 25.624 15.3385H18.4626V19.2728H25.1693C25.336 19.2728 25.4724 19.3271 25.5785 19.4357C25.6846 19.5444 25.7376 19.6841 25.7376 19.8548V21.8335C25.7376 21.9887 25.6846 22.1207 25.5785 22.2293C25.4724 22.3379 25.336 22.3923 25.1693 22.3923H18.4626V27.9095C18.4626 28.0802 18.4095 28.2199 18.3034 28.3286C18.1973 28.4372 18.0609 28.4915 17.8942 28.4915H15.4843Z" fill="white"/>
</svg>
