<svg width="40" height="44" viewBox="0 0 40 44" fill="none" xmlns="http://www.w3.org/2000/svg">
<path d="M36.2007 23.8001V41.8001C36.2007 42.8801 35.4807 43.6001 34.4007 43.6001H5.60068C4.52068 43.6001 3.80068 42.8801 3.80068 41.8001V23.8001H18.2007V40.0001H21.8007V23.8001H36.2007ZM18.2007 11.2001H2.00068C0.920684 11.2001 0.200684 11.9201 0.200684 13.0001V18.4001C0.200684 19.4801 0.920684 20.2001 2.00068 20.2001H18.2007V11.2001ZM38.0007 11.2001H21.8007V20.2001H38.0007C39.0807 20.2001 39.8007 19.4801 39.8007 18.4001V13.0001C39.8007 11.9201 39.0807 11.2001 38.0007 11.2001ZM32.7807 9.22009L32.9607 8.50009C33.6807 6.70009 33.5007 4.54009 32.4207 2.92009C31.3407 1.30009 29.3607 0.400085 27.3807 0.400085C24.8607 0.400085 22.7007 1.84009 21.8007 4.18009L18.2007 13.0001H27.2007C29.5407 13.0001 31.8807 11.5601 32.7807 9.22009ZM25.2207 5.44009C25.5807 4.54009 26.4807 4.00009 27.3807 4.00009C28.1007 4.00009 28.8207 4.36009 29.3607 5.08009C29.7207 5.80009 29.9007 6.52009 29.5407 7.24009L29.3607 7.96009C29.0007 8.86009 28.1007 9.40009 27.2007 9.40009H23.6007L25.2207 5.44009ZM18.2007 4.18009C17.3007 1.84009 14.9607 0.400085 12.6207 0.400085C10.6407 0.400085 8.66068 1.30009 7.58068 3.10009C6.50068 4.72009 6.32068 6.70009 7.04068 8.68009L7.22068 9.40009C8.12068 11.5601 10.4607 13.0001 12.8007 13.0001H21.6207L18.2007 4.18009ZM14.7807 5.44009L16.4007 9.40009H12.8007C11.9007 9.40009 11.0007 8.86009 10.6407 7.96009L10.2807 7.24009C10.1007 6.52009 10.1007 5.62009 10.6407 5.08009C11.0007 4.36009 11.7207 4.00009 12.6207 4.00009C13.5207 4.00009 14.4207 4.54009 14.7807 5.44009Z" fill="#69B99D"/>
</svg>
