<svg width="38" height="38" viewBox="0 0 38 38" fill="none" xmlns="http://www.w3.org/2000/svg">
<path d="M33.7105 10.7059L33.7104 10.7057C33.2178 9.84796 32.5528 8.88408 32.0716 8.33551M33.7105 10.7059L27.0797 13.8767L26.4559 13.231L26.3877 13.1604L26.4571 13.0909L28.9982 10.5438L28.9983 10.5437C29.6969 9.84547 30.338 9.2103 30.8082 8.74959C31.0433 8.51928 31.2359 8.33233 31.3718 8.20283C31.4397 8.13816 31.4938 8.08736 31.5322 8.05252C31.5513 8.03523 31.5673 8.02107 31.5796 8.0109C31.5837 8.00749 31.5881 8.00395 31.5925 8.00062C31.5944 7.99915 31.5964 7.99773 31.5983 7.99638C31.6004 7.99491 31.6034 7.99282 31.607 7.9906C31.6086 7.98968 31.6102 7.98873 31.6119 7.98779C31.6148 7.98619 31.6197 7.98366 31.626 7.98131C31.6308 7.97951 31.6442 7.97471 31.6621 7.97471C31.6864 7.97471 31.705 7.98339 31.7104 7.98593C31.716 7.9886 31.7212 7.99152 31.7257 7.99424C31.7277 7.99551 31.7297 7.99675 31.7314 7.99789C31.7425 8.00519 31.7542 8.01429 31.7655 8.02365C31.7886 8.04271 31.8171 8.06886 31.8487 8.09944C31.9121 8.16091 31.992 8.24457 32.0716 8.33551M33.7105 10.7059C35.9689 14.6597 36.4539 19.746 35.0043 24.2641C34.3764 26.2365 33.3299 28.1491 32.0508 29.6743C31.3631 30.496 29.9016 31.9049 29.1588 32.4598C23.8438 36.4569 16.2065 36.8977 10.4949 33.528C10.0228 33.2509 9.40675 32.831 8.90911 32.4631C8.66022 32.2791 8.43946 32.107 8.28026 31.9714C8.20094 31.9038 8.13509 31.8437 8.08835 31.7948C8.06518 31.7706 8.04459 31.747 8.02913 31.725C8.02141 31.714 8.01352 31.7015 8.00724 31.6878C8.00151 31.6754 7.99366 31.6549 7.99366 31.6299C7.99366 31.6124 7.99823 31.599 8.00018 31.5936C8.00262 31.587 8.00532 31.5816 8.00717 31.5782C8.0109 31.5713 8.01499 31.5651 8.01809 31.5607C8.02455 31.5515 8.03274 31.5411 8.04151 31.5305C8.05938 31.5089 8.08475 31.4801 8.11613 31.4456C8.17916 31.3762 8.26976 31.2801 8.38097 31.1643C8.60355 30.9325 8.91055 30.6201 9.24894 30.2819L10.4749 29.0566L10.5456 28.986M33.7105 10.7059L10.5456 28.986M32.0716 8.33551L31.9975 8.40053L32.0717 8.33558C32.0717 8.33556 32.0716 8.33553 32.0716 8.33551ZM10.5456 28.986L10.6163 29.0566M10.5456 28.986L10.6163 29.0566M10.6163 29.0566L11.1879 29.6279C11.188 29.628 11.1881 29.6281 11.1882 29.6281C12.7496 31.1665 14.7752 32.2486 16.933 32.6829L16.9132 32.7809M10.6163 29.0566L16.9132 32.7809M16.9132 32.7809L16.933 32.6829C17.4203 32.781 18.2515 32.8276 19.0923 32.8211C19.933 32.8146 20.7697 32.7552 21.2682 32.6461L21.2685 32.646M16.9132 32.7809L21.2685 32.646M21.2685 32.646C23.5242 32.1598 25.134 31.2999 26.7174 29.7248L26.7174 29.7247M21.2685 32.646L26.7174 29.7247M26.7174 29.7247C29.0224 27.4358 30.1717 24.441 30.039 21.0741M26.7174 29.7247L30.039 21.0741M24.3183 29.0167L24.3191 29.0161C24.6016 28.8177 24.9874 28.4673 25.3548 28.0917C25.7224 27.7159 26.0776 27.3087 26.2976 26.9942C27.4165 25.4031 27.9578 23.6973 27.9578 21.7459C27.9578 20.1126 27.6277 18.6927 26.9283 17.3698C26.2138 16.0168 25.2664 14.9377 22.8062 12.687C21.8847 11.8328 20.8472 10.8476 20.5001 10.486C20.1523 10.1162 19.6713 9.56882 19.4206 9.25933L18.9676 8.69529L18.8775 8.58307L18.8038 8.70667L18.5736 9.09258L24.3183 29.0167ZM24.3183 29.0167L23.9616 29.2617L23.7677 29.395L23.8064 29.1629L23.8658 28.8064L23.8658 28.8062C23.9675 28.2037 23.9233 27.3656 23.7648 26.8396M24.3183 29.0167L23.9279 29.0423M13.7777 28.9343C13.1684 28.5036 12.1579 27.4491 11.7121 26.7807M13.7777 28.9343L14.0183 29.1046L14.0359 29.2041L14.1344 29.1867L14.1921 29.1051L14.1096 29.0467L14.0898 28.9343C13.8817 27.7461 13.9858 27.0703 14.5356 26.0307L11.7121 26.7807M13.7777 28.9343L13.7199 29.0159M13.7777 28.9343L13.7199 29.0159M11.7121 26.7807C10.6199 25.1322 10.0998 23.3351 10.1964 21.5157C10.2633 20.2533 10.6273 19.2434 11.5858 17.6542L11.7121 26.7807ZM23.9279 29.0423L23.9645 28.8229C24.0685 28.2065 24.0239 27.3525 23.8604 26.8104M23.9279 29.0423L23.8484 29.0969L23.905 29.1793L24.0036 29.1958L24.0195 29.1006L24.2617 28.9343L23.9279 29.0423ZM23.8604 26.8104L23.7648 26.8398C23.7648 26.8397 23.7648 26.8397 23.7648 26.8396M23.8604 26.8104L23.7647 26.8393C23.7647 26.8394 23.7648 26.8395 23.7648 26.8396M23.8604 26.8104L23.7648 26.8396M23.7648 26.8396C23.5697 26.2044 23.0462 25.3438 22.3128 24.4192C21.5812 23.497 20.6475 22.5194 19.6416 21.6508L19.0163 21.1132L18.398 21.6506L18.3975 21.651C16.8209 23.0048 15.3073 24.785 14.624 26.0774L14.624 26.0775C14.352 26.5917 14.1938 27.0095 14.1273 27.442C14.0609 27.8746 14.0853 28.3287 14.1883 28.917L14.2328 29.1694L14.2751 29.4089L14.0766 29.2684L13.72 29.0159L23.7648 26.8396ZM13.7199 29.0159C13.4077 28.7951 12.9977 28.4186 12.6115 28.0158C12.225 27.6128 11.8564 27.1773 11.6289 26.8362L11.6288 26.836M13.7199 29.0159L11.6288 26.836M11.6288 26.836C10.5259 25.1713 9.99869 23.3532 10.0965 21.5104M11.6288 26.836L10.0965 21.5104M19.578 24.5054C20.1235 25.0655 20.6172 25.6523 20.9993 26.185C21.3796 26.715 21.6557 27.2 21.7573 27.5552C21.9 28.0544 21.8099 28.6304 21.5051 29.2319C20.7572 30.7115 18.7858 31.2126 17.435 30.256L17.4349 30.2559C16.6901 29.7264 16.2343 28.8883 16.2188 28.0375H16.2188V28.0357C16.2188 27.4807 16.4975 26.9008 17.1603 26.0225C17.397 25.7072 17.8171 25.2127 18.1882 24.7981C18.374 24.5906 18.5485 24.4019 18.6827 24.2647C18.7495 24.1962 18.8075 24.1395 18.8523 24.0993C18.8745 24.0794 18.8952 24.062 18.9132 24.049C18.9221 24.0426 18.9324 24.0357 18.9433 24.03C18.9506 24.0262 18.9727 24.0148 19.0011 24.0148C19.0262 24.0148 19.0457 24.024 19.0513 24.0266L19.0514 24.0267C19.0604 24.0309 19.0686 24.0358 19.0753 24.0401C19.089 24.0489 19.1043 24.0603 19.1202 24.0728C19.1523 24.0983 19.1935 24.1339 19.2402 24.1763C19.3339 24.2615 19.4543 24.378 19.578 24.5054ZM19.578 24.5054L19.5064 24.5752L19.5781 24.5056C19.5781 24.5055 19.578 24.5055 19.578 24.5054ZM30.039 21.0741C29.921 18.3046 28.8673 15.7443 27.0801 13.877L30.039 21.0741ZM10.0965 21.5104C10.1646 20.2258 10.5369 19.1998 11.4999 17.603M10.0965 21.5104L11.4999 17.603M11.4999 17.603C11.6265 17.3873 11.7455 17.1902 11.8339 17.0452C11.8734 16.9804 11.9067 16.926 11.9319 16.885L11.9405 16.871L11.9708 16.8213C11.9742 16.8157 11.9765 16.8119 11.9779 16.8096C11.9802 16.8058 11.9803 16.8057 11.9794 16.8075C11.9948 16.7767 12.0202 16.7639 12.0286 16.7601C12.0393 16.7551 12.0489 16.753 12.054 16.7519C12.0647 16.7498 12.0748 16.7493 12.0815 16.7491C12.0959 16.7486 12.1133 16.7493 12.1315 16.7504C12.1686 16.7528 12.2197 16.7579 12.28 16.7649C12.4012 16.779 12.5657 16.8015 12.7443 16.8275C14.109 17.0234 15.3408 16.604 16.337 15.601C16.8075 15.1235 17.1063 14.722 17.3029 14.2465C17.5001 13.7694 17.5976 13.2104 17.6531 12.4122C17.7504 10.9608 18.0059 10.0382 18.5734 9.09282L11.4999 17.603ZM16.8084 0.198227L16.8081 0.198269C14.4631 0.523575 12.5418 1.11453 10.516 2.12685L10.5159 2.12689C7.37395 3.6933 4.70563 6.07966 2.86556 8.98224C1.49194 11.1597 0.508568 13.9819 0.198158 16.6706C0.0282178 18.1475 0.0877466 21.0411 0.308722 22.2928C1.7648 30.4034 8.66208 36.912 16.7908 37.8352L16.7795 37.9345L16.7906 37.8352C17.3814 37.9012 18.4418 37.9144 19.5027 37.8856C20.5639 37.8569 21.6146 37.7864 22.1865 37.6875L22.1865 37.6875C26.0462 37.0224 29.2598 35.4197 31.9642 32.8129L31.9643 32.8128C35.0616 29.8354 36.9688 26.2013 37.7306 21.8253L37.7306 21.8252C37.8776 20.9876 37.9 20.6385 37.9 18.7681C37.9 16.8906 37.8776 16.5561 37.7307 15.7188C37.021 11.7589 35.2848 8.45788 32.4235 5.59082C29.5697 2.7387 26.2373 0.996037 22.3346 0.301636C21.7373 0.195431 20.6555 0.126785 19.5686 0.106377C18.4816 0.0859642 17.4018 0.114033 16.8084 0.198227ZM21.4066 2.30212L21.4067 2.30213C23.7847 2.61603 26.1844 3.52006 28.181 4.85787L28.1814 4.85814C28.6435 5.17101 29.0818 5.48787 29.4107 5.74282C29.575 5.87017 29.7131 5.98291 29.8135 6.07245C29.8636 6.11711 29.9056 6.15717 29.9373 6.19117C29.9531 6.20814 29.9673 6.22475 29.979 6.24054C29.9898 6.25503 30.0026 6.27438 30.0103 6.2963L30.0109 6.29797C30.0204 6.32656 30.0145 6.3507 30.0125 6.35812C30.0098 6.36836 30.0061 6.37655 30.0037 6.38141C29.9987 6.39142 29.9927 6.40072 29.9877 6.40792C29.9772 6.42301 29.9628 6.44134 29.9459 6.46165C29.9118 6.50285 29.8615 6.55954 29.7976 6.6293C29.6696 6.76918 29.4833 6.96556 29.2533 7.20385C28.793 7.68062 28.1554 8.32714 27.453 9.02913L24.8896 11.5911L24.8219 11.6587L24.7514 11.5941L23.949 10.859C21.8425 8.93221 20.6525 7.55016 19.7462 5.94054L19.8314 5.89253L19.7461 5.94052C19.6132 5.70431 19.4843 5.49082 19.3844 5.33699C19.3343 5.25985 19.2924 5.19905 19.2615 5.15825C19.2613 5.158 19.2611 5.15775 19.2609 5.1575C19.2543 5.16263 19.2471 5.16829 19.2394 5.1745C19.1882 5.21561 19.1181 5.27615 19.0337 5.35219C18.8652 5.504 18.6436 5.71442 18.4105 5.94736L18.4098 5.94806C16.5548 7.76526 15.7186 9.5764 15.5567 12.1356L15.5567 12.1357C15.5046 12.9465 15.4595 13.1794 15.2937 13.5107L15.2932 13.5118C14.8908 14.293 14.1964 14.7393 13.3319 14.7393C13.0971 14.7393 12.9423 14.7321 12.7805 14.6874C12.6208 14.6432 12.4593 14.5637 12.2078 14.4306L12.2073 14.4304C11.9056 14.2686 11.577 14.0823 11.4805 14.0184C11.4236 13.9845 11.4073 13.9818 11.3969 13.9829C11.3863 13.9841 11.3551 13.9936 11.2855 14.068C11.1477 14.2154 10.929 14.538 10.4951 15.1848C9.25786 17.0508 8.61014 18.3771 8.21268 19.8925L8.21264 19.8927C8.08893 20.3618 8.00954 21.0276 7.98275 21.7025C7.95597 22.3772 7.98207 23.0526 8.06585 23.5406C8.23534 24.4905 8.50783 25.3885 8.92037 26.3014L8.92061 26.302L9.27726 27.104L9.30518 27.1668L9.25658 27.2153L7.87457 28.5966C7.49535 28.9756 7.14382 29.3213 6.88321 29.5725C6.75298 29.698 6.64502 29.8003 6.5675 29.8714C6.52888 29.9069 6.497 29.9353 6.47336 29.9553C6.46174 29.965 6.45074 29.9739 6.44126 29.9808C6.43671 29.9841 6.43061 29.9884 6.42384 29.9922C6.4205 29.9941 6.41518 29.9969 6.40856 29.9996C6.40376 30.0015 6.38919 30.0071 6.36986 30.0071C6.33878 30.0071 6.31561 29.9928 6.3103 29.9896L6.30984 29.9893C6.30053 29.9836 6.29212 29.9771 6.28545 29.9715C6.27176 29.9602 6.25628 29.9453 6.24011 29.9289C6.20732 29.8955 6.16504 29.8485 6.1166 29.7921C6.0195 29.6791 5.89393 29.5236 5.76309 29.3517C3.87259 26.9244 2.72148 24.1901 2.31048 21.128C2.13083 19.7962 2.18292 17.2534 2.4153 16.0022L2.41531 16.0022C3.29716 11.2667 5.95863 7.35137 10.0319 4.8042C12.1918 3.45224 14.8289 2.53378 17.2959 2.25734L17.2961 2.25731C18.7902 2.09305 19.9276 2.10802 21.4066 2.30212Z" fill="#69B99D" stroke="white" stroke-width="0.2"/>
</svg>
