<svg width="32" height="38" viewBox="0 0 32 38" fill="none" xmlns="http://www.w3.org/2000/svg">
<path d="M9.08457 0.78906C8.96973 0.879295 8.83027 1.09258 8.78106 1.26484C8.6334 1.70781 8.15762 2.56914 7.77207 3.07773C7.3209 3.66836 6.37754 4.40664 5.61465 4.77578C4.98301 5.07929 3.75254 5.38281 3.1373 5.38281C2.75996 5.38281 2.3416 5.57148 2.25137 5.78476C1.94785 6.55586 0.233398 11.7977 0.233398 11.9863C0.233398 12.3227 3.76074 26.391 3.88379 26.5387C3.94121 26.6043 6.38574 28.8766 9.31426 31.5836C12.251 34.2824 14.8596 36.6941 15.1139 36.9402C15.5486 37.3504 15.6061 37.375 15.9998 37.375C16.3936 37.375 16.451 37.3504 16.8857 36.9402C17.14 36.6941 19.7568 34.2824 22.6854 31.5836C25.6221 28.8766 28.0584 26.6043 28.1158 26.5387C28.2471 26.3746 31.7662 12.3062 31.758 11.9453C31.758 11.568 29.7975 5.80937 29.6006 5.6125C29.4365 5.44844 29.3545 5.43203 28.3373 5.31719C26.065 5.06289 24.1537 3.61094 23.3334 1.51914C22.9479 0.52656 23.7189 0.624998 15.9998 0.624998C9.40449 0.624998 9.28965 0.624998 9.08457 0.78906ZM22.0045 3.02851C23.1365 5.21055 25.3596 6.74453 27.9928 7.14648C28.3373 7.1957 28.1979 6.88398 29.2479 9.98476L29.9287 12.0109L26.5572 25.4887L21.3236 30.3203C18.4443 32.9863 16.049 35.1602 15.9998 35.1602C15.9506 35.1602 13.5553 32.9863 10.676 30.3203L5.44238 25.4887L3.76074 18.7785L2.0873 12.0602L2.89941 9.62383L3.70332 7.1957L4.00684 7.14648C5.31113 6.94961 6.54981 6.47383 7.55879 5.78476C8.55957 5.11211 9.62598 3.86523 10.1182 2.81523L10.2986 2.42969H21.701L22.0045 3.02851Z" fill="#69B99D"/>
<path d="M15.6307 6.76914C15.442 6.85117 13.4158 8.90195 12.6283 9.8125C10.5857 12.1504 9.04355 14.5293 8.43652 16.2684C8.00176 17.5152 8.02637 19.2625 8.48574 20.6242C9.37988 23.2328 11.4799 25.1605 14.1705 25.825C15.1877 26.0793 16.8119 26.0793 17.8291 25.825C20.5197 25.1605 22.6197 23.2328 23.5139 20.6242C23.9732 19.2625 23.9979 17.5152 23.5631 16.2684C22.7592 13.9551 20.3885 10.682 17.3287 7.65508C16.5494 6.87578 16.3936 6.76094 16.1146 6.72813C15.9424 6.71172 15.7209 6.72813 15.6307 6.76914ZM16.6232 9.58281C19.2729 12.298 21.4877 15.4973 21.9471 17.2773C22.2342 18.3766 21.9471 19.9926 21.2416 21.1984C21.0857 21.4527 20.6264 22.0023 20.2162 22.4125C19.5846 23.0523 19.3549 23.2246 18.6986 23.5445C17.7389 24.0039 17.017 24.1762 15.9998 24.1762C14.9826 24.1762 14.2607 24.0039 13.301 23.5445C12.6447 23.2246 12.415 23.0523 11.7834 22.4125C11.3732 22.0023 10.9139 21.4527 10.758 21.1984C10.0607 19.9926 9.76543 18.3848 10.0443 17.2773C10.4299 15.7926 11.9803 13.3973 14.1869 10.8789C14.876 10.0914 15.9342 8.99219 15.9998 8.99219C16.0244 8.99219 16.3033 9.26289 16.6232 9.58281Z" fill="#69B99D"/>
<path d="M19.158 17.2773C18.8135 17.4168 18.6412 17.7121 18.5592 18.3109C18.3705 19.6645 17.4764 20.5586 16.1639 20.698C15.7127 20.7391 15.5896 20.7883 15.3682 21.018C15.1467 21.2313 15.0975 21.3461 15.0975 21.625C15.0975 21.9039 15.1467 22.0188 15.3764 22.2484C15.6225 22.4945 15.7045 22.5273 16.0982 22.5273C17.4928 22.5191 18.9283 21.7316 19.7076 20.5258C20.2736 19.648 20.5854 18.2207 20.3146 17.7039C20.1014 17.2855 19.5846 17.0969 19.158 17.2773Z" fill="#69B99D"/>
</svg>
