<svg width="43" height="28" viewBox="0 0 43 28" fill="none" xmlns="http://www.w3.org/2000/svg">
<path d="M4.43682 0.89961C4.28916 0.998048 4.07588 1.21133 3.97744 1.35899L3.78877 1.63789V14.3035L3.97744 14.4758C4.21533 14.7055 4.68291 14.7137 4.94541 14.5004L5.14229 14.3445L5.16689 8.225L5.1833 2.10547H30.4489V8.2168C30.4489 14.2215 30.4489 14.3281 30.613 14.4922C30.8263 14.7055 31.3431 14.7137 31.6056 14.5004C31.7614 14.3773 31.8024 14.2543 31.8271 13.8031L31.8599 13.2535L40.0056 13.3027L40.3911 13.4914C40.8013 13.6965 41.3919 14.2953 41.4657 14.5742C41.5067 14.7301 41.4657 14.7383 40.3747 14.7383C38.8489 14.7383 38.8653 14.7219 38.8325 16.0016C38.7915 17.2566 38.931 17.7488 39.456 18.2738C39.8907 18.7086 40.4567 18.9219 41.1704 18.9219H41.6052V21.7109H40.0056L39.7677 21.2105C39.4724 20.5625 38.6192 19.7012 37.9794 19.3977C36.6833 18.766 35.3708 18.766 34.0747 19.3977C33.4349 19.7012 32.6064 20.5461 32.2946 21.1941C31.8681 22.0883 31.8435 21.9898 31.8435 19.209C31.8435 16.2066 31.8271 16.1328 31.0724 16.1328C30.9001 16.1328 30.7442 16.1984 30.6294 16.3215C30.4489 16.5102 30.4489 16.5594 30.4489 19.1105V21.7109H16.8728L16.5856 21.1613C15.7325 19.5125 13.8294 18.6266 11.9755 19.0121C10.8188 19.25 9.6376 20.1687 9.15361 21.1941L8.91572 21.7027H7.05361L5.1833 21.7109V20.3164H6.69268C8.08721 20.3164 8.21025 20.3082 8.41533 20.1441C8.5876 20.0129 8.62861 19.9063 8.62861 19.6191C8.62861 19.332 8.5876 19.2254 8.41533 19.0941C8.20205 18.9301 8.11182 18.9219 4.81416 18.9219C1.5165 18.9219 1.42627 18.9301 1.21299 19.0941C0.909473 19.332 0.909473 19.9063 1.21299 20.1441C1.40986 20.3 1.54111 20.3164 2.60752 20.3164H3.78877V21.2516C3.78877 22.0801 3.80518 22.2113 3.97744 22.4492C4.3876 23.0645 4.3876 23.0645 6.66807 23.0891L8.71065 23.1137V23.4664C8.71065 24.623 9.62119 26.0914 10.7368 26.7395C11.713 27.2973 13.0747 27.4531 14.1411 27.125C15.1665 26.8133 16.1837 25.9602 16.6185 25.0496C16.8646 24.5492 17.0778 23.7617 17.0778 23.3762V23.1055H31.8435V23.4172C31.8435 23.8602 32.0567 24.623 32.3192 25.107C32.6063 25.6566 33.5087 26.559 34.0173 26.8133C35.2888 27.4613 36.7653 27.4613 38.0368 26.8133C38.5454 26.559 39.4478 25.6566 39.7349 25.107C39.9974 24.623 40.2106 23.8602 40.2106 23.4172V23.1055H41.3919C42.4583 23.1055 42.5896 23.0891 42.7864 22.9332L43.0079 22.7609L42.9587 14.4512L42.6962 13.9016C42.2696 12.991 41.5642 12.3922 40.4978 12.0312L40.0958 11.8918L39.0458 7.7082L39.3001 7.45391C39.538 7.22422 39.5544 7.15859 39.5544 6.6418C39.5544 5.24727 39.0376 4.33672 37.9138 3.73789C37.5446 3.54102 37.52 3.54102 34.7063 3.51641L31.8599 3.4918L31.8271 2.57305C31.7942 1.53945 31.6876 1.26055 31.2528 0.940626L30.9821 0.751954L4.71572 0.710938L4.43682 0.89961ZM37.2329 4.98477C37.6595 5.14063 37.9876 5.54258 38.1106 6.05938L38.1599 6.28906H31.8435V4.89453H34.4192C36.0517 4.89453 37.0853 4.92734 37.2329 4.98477ZM37.6595 7.98711C37.7087 8.15938 37.9384 9.10274 38.1845 10.0789L38.6356 11.8672H31.8435V7.68359H37.5774L37.6595 7.98711ZM41.6052 17.5273H41.236C40.5306 17.5273 40.2106 17.2074 40.2106 16.502V16.1328H41.6052V17.5273ZM14.0673 20.5953C14.6005 20.8496 15.2157 21.4813 15.4618 22.0227C15.7325 22.6051 15.7161 23.6469 15.429 24.2539C15.1665 24.8199 14.6661 25.3285 14.1083 25.6238C13.7228 25.8289 13.5833 25.8535 12.8942 25.8535C11.9673 25.8535 11.5243 25.6812 10.9255 25.0742C10.3185 24.4754 10.1462 24.0324 10.1462 23.1055C10.1462 22.277 10.2528 21.9652 10.7368 21.3336C11.4505 20.3902 12.9681 20.0539 14.0673 20.5953ZM37.2001 20.5871C37.8071 20.8906 38.4142 21.5469 38.6438 22.1621C39.1524 23.491 38.5126 25.0086 37.1837 25.6648C36.6341 25.9355 35.4118 25.9355 34.8704 25.6648C34.288 25.3777 33.8696 24.9758 33.5661 24.4098C33.0165 23.3762 33.1642 22.1785 33.9435 21.309C34.6079 20.5707 35.2314 20.3 36.1665 20.3492C36.5931 20.3656 36.872 20.4313 37.2001 20.5871Z" fill="#69B99D"/>
<path d="M12.2708 21.8668C11.7458 22.1047 11.5407 22.4574 11.5407 23.1219C11.5407 23.7125 11.6556 23.9586 12.0985 24.2867C12.4185 24.5246 13.1731 24.5574 13.5505 24.3523C14.3298 23.9258 14.5185 22.8922 13.936 22.2277C13.4767 21.7109 12.9024 21.5797 12.2708 21.8668Z" fill="#69B99D"/>
<path d="M35.3708 21.8996C34.4767 22.3672 34.3946 23.6797 35.2149 24.2621C35.5513 24.5 36.2075 24.5656 36.6095 24.3934C37.3231 24.098 37.6431 23.0973 37.2411 22.4164C37.0196 22.0309 36.4618 21.7109 36.0271 21.7109C35.863 21.7109 35.5677 21.793 35.3708 21.8996Z" fill="#69B99D"/>
<path d="M20.0556 9.99687L17.0778 12.9664L15.4946 11.3914C14.0017 9.90664 13.895 9.81641 13.5997 9.81641C13.1896 9.81641 12.8942 10.1035 12.8942 10.5219C12.8942 10.8172 12.9927 10.932 14.8056 12.7449L16.7087 14.6562H17.4388L20.6708 11.4324C22.4427 9.66875 23.9521 8.11016 24.0177 7.98711C24.1161 7.79844 24.1243 7.7 24.0505 7.47031C23.9356 7.14219 23.7634 7.02734 23.3368 7.02734C23.0415 7.02734 22.9185 7.14219 20.0556 9.99687Z" fill="#69B99D"/>
<path d="M2.57471 16.3215C2.34502 16.5594 2.33682 17.027 2.5501 17.2895L2.70596 17.4863L7.08643 17.5109C9.48994 17.5191 11.5407 17.5109 11.6474 17.4863C12.156 17.3633 12.3446 16.666 11.9673 16.3133L11.7786 16.1328H2.74697L2.57471 16.3215Z" fill="#69B99D"/>
<path d="M18.0212 19.127C17.8817 19.2582 17.8161 19.4141 17.8161 19.6191C17.8161 19.8242 17.8817 19.9801 18.0212 20.1113L18.2181 20.3164H23.3778C28.4802 20.3164 28.5458 20.3164 28.7591 20.1441C28.9313 20.0129 28.9724 19.9062 28.9724 19.6191C28.9724 19.332 28.9313 19.2254 28.7591 19.0941C28.5458 18.9219 28.4802 18.9219 23.3778 18.9219H18.2181L18.0212 19.127Z" fill="#69B99D"/>
</svg>
