<svg width="16" height="12" viewBox="0 0 16 12" fill="none" xmlns="http://www.w3.org/2000/svg">
<path fill-rule="evenodd" clip-rule="evenodd" d="M4.42058 0.92203C6.8032 0.735625 9.19674 0.735625 11.5794 0.922031L13.1799 1.04725C14.0713 1.11699 14.8006 1.78513 14.948 2.66711C15.3167 4.87389 15.3167 7.12657 14.948 9.33335C14.8006 10.2153 14.0713 10.8835 13.1799 10.9532L11.5794 11.0784C9.19674 11.2648 6.8032 11.2648 4.42058 11.0784L2.82008 10.9532C1.9286 10.8835 1.19929 10.2153 1.05193 9.33335C0.683211 7.12657 0.683211 4.87389 1.05193 2.66711C1.19929 1.78513 1.9286 1.11699 2.82008 1.04725L4.42058 0.92203ZM6.57138 7.76462V4.23584C6.57138 4.06928 6.75308 3.9664 6.89591 4.05209L9.83656 5.81648C9.97527 5.89971 9.97527 6.10075 9.83656 6.18398L6.89591 7.94837C6.75308 8.03406 6.57138 7.93118 6.57138 7.76462Z" fill="#29CDB5"/>
</svg>
