<svg width="38" height="38" viewBox="0 0 38 38" fill="none" xmlns="http://www.w3.org/2000/svg">
<path d="M16.0187 0.169369C15.6432 0.368176 15.2529 0.839424 15.1425 1.23704C15.0983 1.39903 15.0689 2.5477 15.0689 4.10134C15.0689 5.5298 15.0615 6.70056 15.0541 6.70056C15.0394 6.70056 14.767 6.64902 14.443 6.59011C14.119 6.5312 13.4048 6.45757 12.8599 6.43548C7.88234 6.1925 3.16987 9.04207 1.09344 13.5484C0.732642 14.3289 0.320301 15.588 0.143583 16.4568C-0.047861 17.4067 -0.047861 20.1458 0.143583 21.0957C1.24071 26.5003 5.52611 30.447 10.9823 31.0729C12.2782 31.2201 13.7508 31.1318 15.0247 30.8372L15.6726 30.69L19.0008 34.0034C22.4615 37.4568 22.6456 37.6188 23.2421 37.6261C23.9563 37.6261 23.6323 37.9207 30.6274 30.9403C34.5667 27.001 37.2248 24.2913 37.3206 24.122C37.4384 23.8937 37.4605 23.7317 37.4384 23.3341C37.4089 22.7745 37.3058 22.5831 36.8346 22.2075L36.5548 21.9793L31.4889 21.9351V11.6266C31.4889 0.250366 31.5257 1.04559 31.025 0.522804C30.8925 0.390266 30.6568 0.213551 30.4948 0.139915C30.215 0.00737762 29.8616 1.52588e-05 23.2715 1.52588e-05H16.3427L16.0187 0.169369ZM29.8616 1.25913C29.9868 1.30331 30.1267 1.39903 30.1635 1.47266C30.2077 1.56102 30.2371 5.29418 30.2371 11.7959C30.2371 18.5701 30.2666 22.0676 30.3108 22.2517C30.3991 22.5536 30.6789 22.9218 30.9293 23.069C31.0397 23.1279 31.8129 23.1648 33.6242 23.1942C36.0394 23.231 36.1645 23.2384 36.1866 23.3709C36.2087 23.474 34.5299 25.197 29.788 29.9389C26.2463 33.4806 23.323 36.3744 23.2789 36.3744C23.2421 36.3744 21.8209 34.9901 20.1348 33.3039L17.0643 30.2335L17.9258 29.7843C21.3129 28.0319 23.6102 25.0203 24.4349 21.2503C24.5822 20.6023 24.5969 20.2857 24.5969 18.7763C24.5969 17.2594 24.5822 16.9502 24.4349 16.2949C23.728 13.0698 21.9535 10.4043 19.2806 8.5561C18.6474 8.12166 17.4987 7.51052 16.8139 7.26016L16.3574 7.08345L16.3353 4.36641C16.3206 1.72301 16.3206 1.63465 16.4679 1.45057C16.5489 1.34749 16.6888 1.2444 16.7845 1.22968C16.8729 1.21495 19.7961 1.19286 23.2862 1.1855C27.7484 1.17813 29.6922 1.20022 29.8616 1.25913ZM14.5534 7.90077C16.8287 8.37938 18.7799 9.48386 20.3998 11.1995C21.8062 12.6942 22.7782 14.5719 23.22 16.6409C23.4114 17.5319 23.4114 20.0207 23.22 20.9116C22.2627 25.4032 18.8462 28.7976 14.3914 29.6886C13.309 29.9021 11.402 29.9242 10.3932 29.7254C5.79118 28.8197 2.36728 25.4694 1.39533 20.9116C1.20389 20.0207 1.20389 17.5319 1.39533 16.6409C2.17584 12.9814 4.65725 9.94775 8.01488 8.54137C9.59061 7.88604 10.8865 7.64305 12.6022 7.6946C13.3827 7.71669 13.957 7.77559 14.5534 7.90077Z" fill="#69B99D"/>
<path d="M11.3868 9.54276C8.12488 9.96247 5.48148 11.7665 4.06038 14.5498C2.97062 16.6777 2.75708 19.2917 3.47868 21.589C4.48008 24.7847 7.22657 27.2219 10.5548 27.8846C11.4383 28.0539 13.1761 28.0539 14.0597 27.8846C17.8517 27.1262 20.7749 24.1441 21.4376 20.3446C21.6732 19.0192 21.5481 17.2815 21.1357 15.9635C20.1343 12.7826 17.3731 10.3159 14.0965 9.68266C13.4853 9.56485 11.8728 9.48386 11.3868 9.54276ZM14.1996 11.0007C17.0712 11.7296 19.2507 13.8723 20.0533 16.7587C20.2374 17.4288 20.2595 17.5981 20.2595 18.7763C20.2595 19.9544 20.2374 20.1237 20.0533 20.7938C18.75 25.4915 13.824 27.9803 9.35454 26.2131C6.99094 25.2706 5.2164 23.2531 4.53899 20.7275C4.33282 19.9765 4.25918 18.4523 4.38436 17.5981C4.89242 14.1448 7.74936 11.3173 11.2395 10.824C12.0274 10.7135 13.3896 10.7945 14.1996 11.0007Z" fill="#69B99D"/>
<path d="M11.837 13.0035C11.7266 13.1434 11.6824 13.3054 11.6824 13.5557V13.9092L11.2848 13.9902C10.438 14.1669 9.66488 14.8664 9.42926 15.6763C9.3409 15.9635 9.31881 16.2801 9.3409 16.8545C9.36299 17.5761 9.38508 17.6718 9.6207 18.0988C9.88578 18.6069 10.2024 18.9088 10.7252 19.1665C10.9976 19.299 11.2333 19.3359 12.0874 19.3727C13.1698 19.4169 13.4054 19.4831 13.722 19.8218C13.8104 19.9102 13.9135 20.0869 13.9576 20.1974C14.0607 20.4624 14.0607 21.2798 13.9576 21.5522C13.8472 21.8615 13.4569 22.2296 13.1551 22.3106C12.8237 22.4063 11.7929 22.4063 11.4615 22.3106C11.0124 22.1854 10.5779 21.6258 10.5779 21.1693C10.5779 20.7128 10.2098 20.4109 9.77533 20.5066C9.47344 20.5729 9.32617 20.8011 9.32617 21.2061C9.32617 22.3106 10.1803 23.3341 11.2848 23.5624L11.6824 23.6434V23.9968C11.6824 24.5049 11.8812 24.7405 12.3083 24.7405C12.7353 24.7405 12.9342 24.5049 12.9342 23.9968V23.6434L13.3318 23.5624C14.1785 23.3856 14.9517 22.6861 15.1873 21.8762C15.2757 21.589 15.2978 21.2724 15.2757 20.6981C15.2536 19.9765 15.2315 19.8807 14.9959 19.4537C14.7308 18.9456 14.4142 18.6437 13.8914 18.386C13.6189 18.2535 13.3833 18.2167 12.5292 18.1798C11.4468 18.1357 11.2112 18.0694 10.8945 17.7307C10.8062 17.6423 10.7031 17.4656 10.6589 17.3552C10.5558 17.0901 10.5558 16.2728 10.6589 16.0003C10.7694 15.6911 11.1596 15.3229 11.4615 15.2419C11.7929 15.1462 12.8237 15.1462 13.1477 15.2419C13.6484 15.3818 13.9576 15.8089 14.0755 16.5084C14.2006 17.2962 15.2904 17.1343 15.2904 16.3243C15.2904 15.2419 14.4289 14.2184 13.3318 13.9902L12.9342 13.9092V13.5557C12.9342 13.0477 12.7353 12.812 12.3083 12.812C12.0506 12.812 11.9548 12.8489 11.837 13.0035Z" fill="#69B99D"/>
</svg>
