<svg width="26" height="34" viewBox="0 0 26 34" fill="none" xmlns="http://www.w3.org/2000/svg">
<path d="M0.25 13.9089V20.0914H2.43571V13.9089H0.25ZM25.75 20.0914V13.9089H23.5643V20.0914H25.75ZM25.75 13.9089C25.75 6.43974 20.0416 0.384766 13 0.384766V2.70319C18.8345 2.70319 23.5643 7.72017 23.5643 13.9089H25.75ZM13 33.6155C20.0416 33.6155 25.75 27.5606 25.75 20.0914H23.5643C23.5643 26.2802 18.8345 31.2971 13 31.2971V33.6155ZM0.25 20.0914C0.25 27.5606 5.95837 33.6155 13 33.6155V31.2971C7.16551 31.2971 2.43571 26.2802 2.43571 20.0914H0.25ZM2.43571 13.9089C2.43571 7.72017 7.16551 2.70319 13 2.70319V0.384766C5.95837 0.384766 0.25 6.43974 0.25 13.9089H2.43571Z" fill="#1F2744"/>
<path d="M6.58219 18.7728C6.16726 18.3672 6.16726 17.7098 6.58219 17.3042L9.41552 14.535C9.83045 14.1295 10.5032 14.1295 10.9181 14.535C11.3331 14.9406 11.3331 15.598 10.9181 16.0035L9.89855 17H16.1018L15.0822 16.0035C14.6673 15.598 14.6673 14.9406 15.0822 14.535C15.4972 14.1295 16.1698 14.1295 16.5848 14.535L19.4181 17.3042C19.833 17.7098 19.833 18.3672 19.4181 18.7728L16.5848 21.542C16.1698 21.9476 15.4972 21.9476 15.0822 21.542C14.6673 21.1365 14.6673 20.479 15.0822 20.0735L16.1018 19.077H9.89855L10.9181 20.0735C11.3331 20.479 11.3331 21.1365 10.9181 21.542C10.5032 21.9476 9.83045 21.9476 9.41553 21.542L6.58219 18.7728Z" fill="#1F2744"/>
</svg>
